<svg version="1.1" id="Layer_1" xmlns="http://www.w3.org/2000/svg" xmlns:xlink="http://www.w3.org/1999/xlink" x="0px" y="0px"
	 width="100%" viewBox="0 0 1600 896" enable-background="new 0 0 1600 896" xml:space="preserve">
<path fill="#033F71" opacity="1.000000" stroke="none" 
	d="
M1493.000000,897.000000 
	C995.333313,897.000000 498.166656,897.000000 1.000000,897.000000 
	C1.000000,598.333313 1.000000,299.666656 1.000000,1.000000 
	C534.333313,1.000000 1067.666626,1.000000 1601.000000,1.000000 
	C1601.000000,299.666656 1601.000000,598.333313 1601.000000,897.000000 
	C1565.166626,897.000000 1529.333374,897.000000 1493.000000,897.000000 
M1065.152344,403.178131 
	C1065.152344,403.178131 1065.238892,403.231232 1065.793213,402.894684 
	C1066.952637,400.551971 1067.441650,398.433472 1063.382446,397.278290 
	C1062.913086,397.362122 1062.443848,397.445984 1061.346558,397.584839 
	C1058.508789,399.324463 1058.637939,401.312958 1061.096680,403.830078 
	C1061.332031,404.024323 1061.601196,404.103729 1062.131836,404.786591 
	C1061.553101,405.925659 1061.132568,407.185852 1060.368896,408.183350 
	C1056.485474,413.255798 1052.461914,418.221558 1048.623657,423.327087 
	C1047.992188,424.167084 1047.820068,425.514496 1047.810547,426.630615 
	C1047.777954,430.440247 1047.776489,434.262024 1048.075562,438.054565 
	C1048.154053,439.050201 1049.361938,439.956726 1050.051270,440.904144 
	C1050.655640,439.952637 1051.694580,439.038696 1051.780762,438.042389 
	C1052.008179,435.411957 1051.925903,432.740082 1051.781494,430.094879 
	C1051.363647,422.443756 1060.144165,419.637238 1060.899414,412.629211 
	C1067.120850,411.859283 1065.114258,407.844971 1064.166626,404.187073 
	C1064.166626,404.187073 1064.088867,404.209137 1064.665894,404.084106 
	C1064.849121,403.755554 1065.032227,403.427032 1065.152344,403.178131 
M1097.228271,425.728699 
	C1097.228271,425.728699 1097.251587,425.698334 1096.883179,425.096893 
	C1091.759521,423.199188 1090.702271,424.364746 1090.721680,432.384247 
	C1085.281616,430.987427 1081.701904,433.893646 1078.211182,437.538788 
	C1076.703491,439.113129 1074.354614,440.459473 1072.229614,440.749359 
	C1067.209473,441.434204 1061.990356,441.064545 1057.695801,444.287323 
	C1058.693115,439.742493 1060.345093,436.363373 1066.158691,436.664734 
	C1068.068115,436.763702 1070.778931,434.653870 1071.937744,432.809296 
	C1073.593018,430.174255 1075.126953,428.761475 1078.403931,428.449402 
	C1079.753906,428.320831 1081.529175,425.531311 1081.885742,423.711945 
	C1082.470581,420.727875 1081.564453,417.515747 1084.848389,415.321136 
	C1085.623413,414.803070 1085.796265,412.381775 1085.300659,411.250214 
	C1084.817871,410.148071 1083.205811,409.079102 1081.944824,408.870209 
	C1078.793945,408.348328 1077.241943,411.367889 1077.840576,415.058197 
	C1078.316528,417.991943 1079.069580,422.007416 1077.592896,423.889404 
	C1074.783813,427.469147 1070.663086,430.186066 1066.688477,432.607361 
	C1064.956299,433.662659 1062.237061,433.220764 1059.978394,433.135223 
	C1059.692627,433.124451 1058.929321,430.566559 1059.336426,430.174622 
	C1060.744629,428.818726 1062.509399,427.779388 1064.261597,426.852478 
	C1065.516968,426.188324 1067.593140,426.312775 1068.224854,425.365997 
	C1070.835571,421.453033 1074.421997,417.878876 1073.139160,412.314819 
	C1072.635864,410.132263 1073.300293,407.698242 1073.279541,405.380096 
	C1073.266968,403.974823 1073.253052,402.420166 1072.641479,401.243652 
	C1072.398804,400.777100 1069.674927,400.862091 1069.562866,401.195099 
	C1069.097412,402.576874 1068.833984,404.231171 1069.150757,405.638153 
	C1070.999512,413.851379 1067.500610,420.727692 1059.817139,423.640564 
	C1056.529541,424.886871 1054.734131,427.115417 1054.821045,430.817505 
	C1054.894897,433.957825 1055.317871,437.310944 1054.409424,440.199890 
	C1053.151489,444.200745 1054.824707,444.904633 1058.507690,445.551392 
	C1060.144409,448.383026 1061.667725,451.292419 1063.512451,453.981323 
	C1063.885986,454.525818 1065.531250,454.486237 1066.486938,454.266663 
	C1067.563965,454.019165 1068.487183,452.891632 1069.541016,452.786896 
	C1080.128052,451.734406 1090.726929,450.800415 1101.325806,449.870544 
	C1102.813354,449.740021 1104.403564,450.099426 1105.786987,449.691589 
	C1106.769897,449.401825 1107.485107,448.203278 1108.319702,447.410217 
	C1107.379395,446.991364 1106.456421,446.256073 1105.496216,446.203979 
	C1098.130859,445.804199 1090.555908,448.303253 1083.416382,444.491211 
	C1082.895508,444.213043 1081.581787,444.599030 1081.144409,445.110504 
	C1076.155396,450.944031 1069.732666,446.845673 1064.199463,448.710907 
	C1063.971069,447.934448 1063.742676,447.157990 1063.514282,446.381500 
	C1065.316284,445.818909 1067.131714,445.295746 1068.917603,444.685577 
	C1072.725098,443.384766 1077.146851,442.866150 1080.191650,440.548615 
	C1087.841431,434.725830 1090.763428,434.264069 1099.584961,438.984009 
	C1101.108765,439.799377 1103.988281,439.530060 1105.421021,438.555481 
	C1106.370605,437.909637 1106.646240,434.427704 1105.799438,433.453705 
	C1104.741577,432.237000 1102.233154,431.970917 1100.328125,431.898651 
	C1098.777588,431.839813 1097.193237,432.670776 1094.320312,433.469696 
	C1095.804810,431.478394 1096.359863,430.733887 1097.130737,429.758667 
	C1097.130737,429.758667 1097.167847,429.444946 1097.641602,429.113647 
	C1097.502441,427.997375 1097.363281,426.881134 1097.228271,425.728699 
M977.937378,461.787994 
	C980.274963,461.817627 982.612549,461.847260 985.246948,462.282959 
	C985.853516,462.015442 986.460083,461.747925 987.667969,461.219330 
	C988.081238,461.078552 988.494568,460.937744 989.343140,461.215393 
	C989.702637,460.570770 990.062134,459.926117 990.222290,458.955475 
	C990.182007,458.704376 990.157898,458.451782 990.770264,458.284760 
	C992.150269,458.210510 993.530334,458.136261 995.343872,458.298615 
	C995.614075,458.498779 995.823608,458.749664 996.014404,459.749329 
	C998.768433,464.369873 999.656555,464.571655 1002.773438,461.004303 
	C1003.514893,461.033051 1004.256409,461.061798 1005.206604,461.325470 
	C1005.206604,461.325470 1005.646423,461.374817 1005.646423,461.374817 
	C1005.646423,461.374817 1005.993103,461.079498 1006.874756,460.962738 
	C1009.243042,461.006866 1011.611328,461.051025 1014.115723,461.631927 
	C1015.073730,461.464874 1016.031677,461.297821 1017.673218,461.014679 
	C1018.363586,460.952057 1019.053955,460.889435 1020.482422,460.861298 
	C1021.549011,460.261719 1023.388245,459.819794 1023.548340,459.035187 
	C1024.237671,455.657776 1024.433960,452.179749 1024.848877,448.048218 
	C1023.984436,446.713226 1023.075195,445.404755 1022.266357,444.036926 
	C1021.110962,442.083099 1018.931335,439.979614 1019.110657,438.125885 
	C1019.794189,431.059113 1017.046326,425.668762 1012.519958,420.693634 
	C1011.471252,419.540985 1011.125610,417.748718 1011.121521,415.681305 
	C1012.915771,412.626068 1012.575745,409.626282 1009.466309,408.103058 
	C1008.125366,407.446198 1004.887146,408.285309 1004.007874,409.515198 
	C1001.509521,413.009583 1003.266418,415.612640 1006.938232,417.737579 
	C1006.448486,423.144592 1011.707703,424.945099 1013.250916,428.934326 
	C1013.045654,429.734955 1012.883850,430.550171 1012.621338,431.331543 
	C1012.414185,431.948059 1012.083130,432.522919 1011.122681,433.030701 
	C1006.446899,428.960907 1001.834167,424.814331 997.044800,420.882965 
	C996.025024,420.045868 994.362305,419.992065 992.995850,419.577362 
	C993.017578,421.007385 993.039307,422.437439 992.584473,424.320496 
	C990.297119,424.988403 986.691956,422.436523 985.689087,427.680481 
	C985.497437,429.370819 985.305786,431.061157 985.142761,433.445282 
	C986.353149,434.158386 987.624878,434.786621 988.758606,435.605804 
	C990.225403,436.665680 991.582214,437.877869 992.268738,439.064972 
	C991.669983,439.702576 991.071167,440.340149 989.822388,441.149170 
	C987.767700,442.167389 985.712952,443.185608 982.967773,444.020416 
	C980.974121,444.363098 978.980469,444.705811 976.986816,445.048492 
	C977.415527,446.682983 977.355957,449.122314 978.394104,449.752045 
	C979.748535,450.573669 981.972717,449.961578 984.591309,450.100891 
	C986.825684,450.760376 989.059998,451.419861 991.253784,452.695984 
	C991.250977,453.108093 991.248169,453.520172 990.679810,454.358246 
	C989.652405,455.096313 988.686401,456.346375 987.586304,456.478302 
	C984.005920,456.907715 980.376526,456.928375 976.052917,457.070160 
	C974.610046,457.503357 973.167114,457.936584 971.724243,458.369843 
	C972.463745,459.326904 973.203247,460.283997 974.000732,461.853271 
	C975.036865,464.952393 976.049622,463.342041 977.937378,461.787994 
M1005.764771,482.180878 
	C1007.527405,481.539917 1009.290100,480.898987 1011.774719,480.131592 
	C1012.504211,480.164062 1013.233643,480.196503 1014.505005,480.621216 
	C1016.192566,482.280121 1017.880066,483.939026 1019.242188,486.135773 
	C1018.153870,487.409698 1017.065552,488.683594 1015.076294,490.250519 
	C1005.585449,490.310944 996.060425,492.241394 986.607239,489.324188 
	C985.160950,488.877899 982.552368,489.826874 981.567139,491.024078 
	C980.807983,491.946625 981.164795,495.175171 982.073059,495.765015 
	C983.524231,496.707367 985.878967,496.611145 987.788147,496.394501 
	C989.637451,496.184692 991.396118,494.788422 993.212891,494.748596 
	C1000.166992,494.596313 1007.128479,494.780396 1014.552979,495.127014 
	C1018.396362,491.958008 1022.239746,488.788971 1026.083130,485.619965 
	C1026.626709,485.836884 1027.170288,486.053802 1027.713745,486.270721 
	C1026.929932,491.482056 1027.607910,497.641693 1024.996338,501.667419 
	C1021.646484,506.831299 1015.987793,510.426025 1017.230286,517.780823 
	C1017.343262,518.449524 1016.635864,519.276367 1016.260620,520.004639 
	C1014.355408,523.702148 1015.348022,525.701050 1020.368774,525.987732 
	C1021.570068,526.319824 1022.771362,526.651855 1024.331909,527.526245 
	C1029.157837,529.790161 1029.069336,526.363464 1028.613281,523.476868 
	C1027.584473,516.964172 1029.115356,511.856995 1034.753296,507.850342 
	C1038.260376,505.358032 1039.127563,487.891052 1036.376709,484.409760 
	C1036.110474,484.072754 1035.470703,484.030670 1034.845947,483.278290 
	C1032.885254,482.862610 1030.924683,482.446930 1028.531860,481.851013 
	C1028.234985,481.700806 1028.041016,481.465759 1027.642822,480.510803 
	C1025.413818,477.342438 1023.184937,474.174072 1020.222900,470.668640 
	C1013.930054,470.697876 1007.628967,470.557312 1001.349731,470.864563 
	C999.571411,470.951569 997.524109,471.981262 996.176819,473.210571 
	C992.373352,476.680939 987.749756,476.902802 983.424805,474.160370 
	C981.833801,473.151520 978.536072,472.744446 977.386414,473.703888 
	C976.180664,474.710236 975.723389,478.249084 976.597473,479.635406 
	C977.413086,480.929077 980.412659,481.294312 982.439636,481.265839 
	C985.171448,481.227509 987.893616,480.427246 990.617676,479.941437 
	C993.023987,479.512299 995.427185,479.065918 998.156616,479.249512 
	C998.847107,479.849243 999.537659,480.448944 1000.079407,481.788605 
	C1000.525330,483.098145 1000.971313,484.407715 1001.417236,485.717285 
	C1002.321289,485.145081 1003.225342,484.572845 1004.509155,483.679474 
	C1004.741150,483.424927 1004.878845,483.126831 1005.021118,482.407074 
	C1005.021118,482.407074 1005.239380,482.082886 1005.764771,482.180878 
M1075.419189,457.336304 
	C1073.987061,457.388550 1072.554810,457.440796 1070.292847,457.540802 
	C1069.188232,457.603760 1068.083740,457.666718 1066.735474,457.545563 
	C1066.399658,457.478790 1066.159790,457.608459 1065.436523,458.392395 
	C1064.994141,460.531403 1064.551636,462.670380 1064.070435,465.663788 
	C1064.093506,466.518311 1064.116577,467.372803 1064.066406,468.966034 
	C1063.378296,471.324249 1062.690308,473.682465 1061.367432,476.346924 
	C1060.588257,477.909363 1059.809082,479.471802 1058.335693,481.444000 
	C1054.419189,481.160400 1051.032104,482.957733 1050.613892,486.569855 
	C1049.677979,494.652985 1049.170288,502.982117 1057.376465,508.476410 
	C1058.659424,509.335388 1059.498169,510.857971 1060.851074,512.433228 
	C1054.085693,516.186157 1059.838745,521.943787 1057.948242,526.474854 
	C1057.870605,526.660767 1060.143433,528.367004 1061.355469,528.410339 
	C1062.763184,528.460632 1064.729126,527.854736 1065.520264,526.820435 
	C1066.832275,525.104980 1067.770020,522.889282 1068.171265,520.753906 
	C1068.542480,518.777405 1068.666870,516.235413 1067.720215,514.644348 
	C1066.030396,511.804413 1063.764771,509.102905 1061.185303,507.035645 
	C1054.064819,501.329102 1053.261353,493.901093 1054.508789,485.018890 
	C1056.056274,486.404846 1057.317383,487.394257 1058.415039,488.540253 
	C1065.080444,495.499878 1071.652710,502.549957 1078.397949,509.430786 
	C1079.696777,510.755798 1081.531982,512.047729 1083.283569,512.326721 
	C1086.302124,512.807556 1088.936401,512.982117 1090.676636,516.227722 
	C1091.230225,517.260315 1094.504517,517.808350 1095.854614,517.161072 
	C1097.158081,516.536194 1098.444580,513.912231 1098.158569,512.482483 
	C1097.867065,511.024658 1095.814575,509.620911 1094.217651,508.832489 
	C1093.236206,508.348053 1091.667969,509.127350 1090.354614,509.226318 
	C1086.694824,509.502197 1083.157227,509.749023 1080.339478,506.433807 
	C1076.690430,502.140381 1072.633057,498.196259 1068.917480,493.956299 
	C1065.809326,490.409454 1062.939697,486.653595 1060.609497,482.467377 
	C1065.383911,486.430939 1070.434692,490.112671 1074.850220,494.442230 
	C1078.790161,498.305389 1082.514771,501.329468 1088.586182,500.651581 
	C1092.190063,500.249207 1095.953613,501.275421 1099.831177,501.678619 
	C1101.042969,498.492096 1098.762573,497.627411 1096.086670,497.157898 
	C1094.058228,496.802002 1091.479004,497.362518 1091.563354,493.922180 
	C1091.566040,493.815338 1087.935547,493.237640 1087.810547,493.566925 
	C1086.010498,498.310852 1082.685547,496.344788 1080.672852,494.663055 
	C1075.576782,490.404877 1070.910034,485.619324 1066.245483,480.873901 
	C1065.635132,480.252960 1066.045166,478.628876 1066.486450,477.989349 
	C1069.787842,480.752625 1073.351196,483.263702 1076.319702,486.347412 
	C1079.529175,489.681396 1083.080444,490.584839 1087.531494,490.237854 
	C1091.665405,489.915558 1095.950195,488.676941 1099.941040,491.799835 
	C1100.901367,492.551361 1103.951416,491.451172 1105.439819,490.373199 
	C1106.217285,489.810211 1106.305420,486.539978 1105.625610,486.076630 
	C1104.095337,485.033783 1101.857056,484.482605 1099.969238,484.615356 
	C1094.620239,484.991577 1089.313721,486.048157 1083.965088,486.303619 
	C1082.494751,486.373840 1080.826050,484.709259 1079.437134,483.603668 
	C1075.550171,480.509979 1071.761841,477.292297 1067.572998,473.456604 
	C1067.557129,473.140778 1067.541260,472.824951 1067.525269,472.509094 
	C1073.378174,472.587860 1079.803589,471.210663 1084.899536,473.214539 
	C1088.845093,474.766113 1092.467529,475.681183 1096.531250,476.039825 
	C1098.537476,476.216888 1100.458008,477.216095 1102.461060,477.633545 
	C1103.680054,477.887573 1105.070068,478.017365 1106.209351,477.655548 
	C1106.752563,477.483032 1107.409790,475.648376 1107.107422,475.241852 
	C1106.406250,474.298920 1105.156006,473.169006 1104.122681,473.163544 
	C1096.602295,473.123901 1089.385254,472.123840 1082.678345,467.453613 
	C1083.139282,466.467529 1083.354614,465.160675 1084.121216,464.573486 
	C1085.172363,463.768188 1086.641846,463.508789 1088.507568,463.116547 
	C1088.688477,463.188538 1088.869507,463.260559 1089.226929,463.526245 
	C1089.226929,463.526245 1089.598633,463.602112 1089.598633,463.602112 
	C1089.598633,463.602112 1089.940674,463.426575 1090.667969,463.303101 
	C1092.093994,463.616852 1093.520142,463.930603 1095.024902,464.754120 
	C1095.312622,465.169373 1095.600342,465.584656 1096.084595,466.270599 
	C1096.084595,466.270599 1096.142456,466.600006 1096.275146,467.159515 
	C1096.522583,467.443848 1096.770020,467.728180 1097.610107,468.412292 
	C1100.958984,468.529724 1104.332520,468.430115 1107.651611,468.808167 
	C1115.427490,469.693817 1117.068970,468.089600 1115.763184,459.790558 
	C1115.531982,459.523041 1115.300781,459.255524 1114.516479,458.753021 
	C1114.020630,458.419952 1113.524658,458.086884 1112.710815,457.445282 
	C1112.169067,457.464905 1111.627197,457.484528 1110.366699,457.660614 
	C1109.646118,457.806793 1108.925415,457.952972 1107.455688,457.938049 
	C1105.345947,457.787445 1103.236084,457.636841 1100.337769,457.597870 
	C1099.552368,457.727600 1098.766968,457.857300 1097.256226,458.011444 
	C1094.044189,459.570831 1090.875366,462.309174 1087.498901,458.202240 
	C1087.251587,457.901367 1086.266235,458.207397 1085.275879,458.133698 
	C1085.275879,458.133698 1084.980591,457.925140 1084.529663,457.498657 
	C1083.370239,457.557434 1082.210693,457.616211 1080.205933,457.789948 
	C1078.787109,457.755981 1077.368164,457.722015 1075.419189,457.336304 
M1031.211426,396.129608 
	C1030.421875,397.105988 1029.000610,398.052795 1028.953247,399.063873 
	C1028.759155,403.212463 1028.869873,407.387360 1029.117065,411.537781 
	C1029.201294,412.949890 1029.599365,414.932312 1030.574341,415.595764 
	C1033.983765,417.916046 1033.665283,421.192261 1033.607910,424.522980 
	C1033.544800,428.186615 1033.261841,431.872711 1033.578003,435.505249 
	C1033.731323,437.266235 1035.033936,438.927216 1035.816284,440.633484 
	C1036.487183,438.999207 1037.680176,437.382782 1037.736816,435.727448 
	C1037.958862,429.239655 1037.822388,422.739563 1038.224609,415.778595 
	C1039.181763,415.860809 1040.139038,415.943024 1041.180542,416.956299 
	C1041.201538,423.288422 1041.093506,429.625580 1041.340454,435.948853 
	C1041.397583,437.413727 1042.667847,438.831238 1043.379761,440.270508 
	C1044.107422,438.872131 1045.438477,437.486359 1045.467896,436.073456 
	C1045.717651,424.099213 1045.776245,412.119781 1045.725586,400.142578 
	C1045.721436,399.186096 1044.469604,398.234863 1043.797485,397.281219 
	C1043.237427,398.274841 1042.308350,399.227722 1042.193115,400.270477 
	C1041.945557,402.512634 1042.117188,404.801086 1042.117188,407.070587 
	C1035.562622,403.186890 1037.588257,397.564789 1037.540283,392.541138 
	C1037.519043,390.317322 1039.204102,387.518677 1035.468994,387.356506 
	C1034.713135,387.323730 1033.821045,390.432159 1033.154663,392.444458 
	C1033.296143,392.667053 1033.479980,392.846191 1033.870850,393.633942 
	C1033.848267,394.080231 1033.825806,394.526520 1033.237671,395.103271 
	C1032.801514,395.465759 1032.365356,395.828247 1031.211426,396.129608 
M1024.953857,418.951050 
	C1024.776733,409.343262 1024.409546,399.732666 1024.551147,390.129578 
	C1024.588379,387.606628 1025.832397,384.884796 1027.177490,382.648346 
	C1029.223755,379.245972 1029.107178,374.743713 1026.331055,372.762726 
	C1023.074646,370.439056 1019.780334,371.624664 1016.955017,376.836456 
	C1017.411194,378.702820 1017.770203,380.599854 1018.347534,382.427979 
	C1019.102844,384.819794 1020.687622,387.135345 1020.766846,389.521851 
	C1021.059570,398.344543 1020.845459,407.183167 1020.905334,416.015228 
	C1020.917542,417.821808 1020.611267,420.290375 1021.614807,421.317047 
	C1026.146851,425.953613 1024.583252,431.518677 1024.798706,436.889160 
	C1024.895020,439.288666 1025.551880,441.719482 1026.347900,443.998627 
	C1026.542603,444.556213 1028.331299,444.861542 1029.293091,444.704956 
	C1029.708862,444.637207 1030.201660,443.071259 1030.119385,442.239380 
	C1029.619751,437.194000 1029.219482,432.114410 1028.254639,427.149567 
	C1027.761475,424.612030 1026.163208,422.289276 1024.953857,418.951050 
M1298.378296,530.148254 
	C1298.378296,530.148254 1298.766846,529.906311 1299.439331,529.446167 
	C1299.966309,529.328491 1300.493286,529.210815 1301.573730,529.458252 
	C1303.623291,528.961060 1305.829346,528.790039 1307.689453,527.897888 
	C1311.392212,526.121826 1314.922607,523.980042 1318.490479,521.930664 
	C1321.261475,520.338989 1322.942993,520.761169 1323.090332,524.248352 
	C1323.132568,525.244324 1323.126831,526.253296 1323.019409,527.242859 
	C1322.437012,532.606384 1323.062988,532.850830 1328.544800,532.347656 
	C1333.812622,531.864136 1339.203735,531.817993 1344.461060,532.357056 
	C1350.818726,533.008850 1354.878418,530.026001 1354.879395,523.716797 
	C1354.886475,478.220306 1354.841064,432.723694 1354.931641,387.227386 
	C1354.944092,380.969788 1355.737305,374.716095 1355.869873,368.454285 
	C1355.894409,367.295654 1354.483032,366.106598 1353.408447,364.172180 
	C1351.948486,363.727509 1350.488403,363.282867 1348.689697,362.151672 
	C1340.988403,362.010132 1333.271362,361.580658 1325.600708,361.999237 
	C1324.260010,362.072357 1322.095093,365.688660 1322.046875,367.709991 
	C1321.772949,379.184998 1321.955811,390.673706 1322.141235,402.155212 
	C1322.202515,405.954865 1322.886230,409.744446 1322.948608,413.544220 
	C1322.965942,414.592224 1321.962280,416.254181 1321.072998,416.542511 
	C1320.272583,416.802002 1318.843506,415.729645 1317.949219,414.949493 
	C1316.600342,413.772858 1315.723511,411.771912 1314.213257,411.111877 
	C1307.245972,408.066864 1300.903442,403.355103 1292.801880,403.237671 
	C1281.513184,403.074097 1270.239380,402.289215 1260.065674,408.950073 
	C1254.392090,412.664581 1248.290161,415.724548 1242.381226,419.079529 
	C1241.838745,422.116028 1240.321045,424.715454 1238.723389,427.264618 
	C1238.117676,428.231018 1237.176514,429.001221 1236.645020,429.997833 
	C1231.870117,438.951935 1227.852661,448.186218 1227.184082,458.487946 
	C1226.743774,465.270752 1225.307129,472.284912 1226.471069,478.811310 
	C1228.594360,490.717560 1233.323608,501.879272 1240.527710,511.845551 
	C1241.813843,513.624878 1242.263428,516.008972 1243.223755,518.427185 
	C1246.068237,519.969910 1249.753174,521.674927 1253.132324,523.853821 
	C1265.351440,531.732971 1278.635742,535.151245 1293.073853,533.460083 
	C1294.820801,533.255432 1296.355835,531.242676 1298.061157,529.970337 
	C1298.061157,529.970337 1298.159790,530.040710 1298.378296,530.148254 
M750.961426,524.784485 
	C751.460266,524.145325 752.431580,523.469604 752.385437,522.872620 
	C751.891296,516.483398 751.584167,510.046021 750.487427,503.750488 
	C749.883728,500.285217 747.616333,498.239319 743.179016,499.343781 
	C737.800354,500.682526 732.200134,501.263824 726.658569,501.726532 
	C725.202393,501.848145 723.371338,500.592529 722.120850,499.501251 
	C717.740723,495.678955 719.060852,490.416138 719.018982,485.561951 
	C718.899780,471.747223 719.079834,457.925903 718.698853,444.119446 
	C718.550964,438.761749 719.292419,437.132690 724.685669,437.030640 
	C730.510925,436.920410 736.354004,437.232452 742.159424,436.874756 
	C744.154480,436.751801 746.059387,435.165894 748.635864,434.054504 
	C749.069153,433.984009 749.502502,433.913513 750.221985,434.404236 
	C750.884644,435.020233 751.547363,435.636261 752.002441,436.059296 
	C752.002441,430.501617 751.993835,425.070709 752.005554,419.639832 
	C752.013062,416.177399 752.389709,412.675232 751.989319,409.262634 
	C751.485657,404.970459 749.138794,403.900482 745.148987,405.116974 
	C743.745239,405.545044 742.065247,405.063141 740.511169,405.003876 
	C739.107666,404.950317 737.695129,404.783325 736.301697,404.881653 
	C732.197144,405.171295 728.051025,406.113617 724.015686,405.750275 
	C720.770020,405.458008 718.106567,403.991547 718.710999,399.139282 
	C719.399109,393.615967 718.474854,387.895294 718.303345,382.258820 
	C718.263733,380.958160 718.186157,379.575958 718.552429,378.359711 
	C720.251221,372.719788 717.975525,369.122284 712.302002,369.028168 
	C705.474243,368.914886 698.642151,368.930054 691.813782,369.024445 
	C686.605347,369.096375 685.083008,370.684235 685.017578,376.039612 
	C684.936157,382.701721 685.026917,389.365692 684.985901,396.028534 
	C684.937744,403.854584 681.851379,406.504669 674.239929,405.254456 
	C671.380432,404.784790 669.157166,405.161438 668.989075,408.675507 
	C668.651733,415.727905 668.267639,422.780792 668.144897,429.837677 
	C668.126770,430.881714 669.429321,431.948730 670.692688,433.617767 
	C676.087036,433.617767 681.481384,433.617767 687.080078,433.617767 
	C687.080078,435.675812 687.079102,436.658600 687.080200,437.641388 
	C687.101257,456.621033 686.981750,475.602295 687.197754,494.579712 
	C687.324280,505.692383 689.655518,516.206299 698.895752,523.662842 
	C711.178101,533.574280 737.021118,534.141174 750.961426,524.784485 
M375.487152,366.374634 
	C365.836609,365.938629 356.186066,365.502625 346.031219,365.043823 
	C346.031219,402.409363 346.031219,438.577911 346.031219,475.876160 
	C344.774719,474.156921 344.211975,473.409058 343.672089,472.645081 
	C319.370453,438.260406 295.081909,403.866455 270.734558,369.514191 
	C269.652039,367.986847 268.078064,365.743835 266.662109,365.689728 
	C257.558685,365.341888 248.435455,365.512054 239.341522,365.512054 
	C239.341522,420.543945 239.341522,474.939697 239.341522,529.559204 
	C248.887146,529.559204 258.116028,529.559204 267.865173,529.559204 
	C267.865173,490.762939 267.865173,452.267975 267.865173,412.550446 
	C269.474274,414.934082 270.336273,416.267578 271.253693,417.561768 
	C296.948486,453.809875 322.675293,490.035339 348.289459,526.340332 
	C350.007690,528.775757 351.689392,529.958862 354.751770,529.858582 
	C361.573669,529.635071 368.408051,529.791504 376.001343,529.404114 
	C376.335052,527.673889 376.958496,525.943909 376.960297,524.213318 
	C377.012726,473.535492 377.014526,422.857574 376.954987,372.179749 
	C376.952972,370.466705 376.233673,368.754486 375.487152,366.374634 
M839.197571,506.837433 
	C848.467896,477.229004 857.738220,447.620605 867.303589,417.069824 
	C870.125732,425.932648 872.654663,433.793762 875.132507,441.670929 
	C883.814636,469.271912 892.550903,496.856293 901.072815,524.506653 
	C902.347229,528.641785 904.129944,530.494080 908.692383,529.932312 
	C912.795166,529.427063 917.078918,529.359802 921.159668,529.950500 
	C927.121765,530.813538 929.323303,528.214600 931.107605,522.819458 
	C946.766541,475.469727 962.738464,428.223572 978.601013,380.941223 
	C980.264771,375.981903 981.821472,370.986725 983.580017,365.536560 
	C973.982788,365.536560 965.175842,365.652924 956.375000,365.474152 
	C953.246033,365.410614 951.761902,366.299194 950.784180,369.489105 
	C941.670288,399.222992 932.357910,428.896027 923.095520,458.584381 
	C920.963989,465.416656 918.803894,472.240051 916.656982,479.067505 
	C916.344299,479.045410 916.031677,479.023285 915.719055,479.001190 
	C903.987976,441.149017 892.256958,403.296875 880.541321,365.494476 
	C871.567688,365.494476 863.094543,365.494476 854.237061,365.494476 
	C842.487427,403.425171 830.754578,441.301697 818.732239,480.112793 
	C817.968750,478.127472 817.558350,477.220367 817.265869,476.276672 
	C806.239746,440.697418 795.242126,405.109192 784.145325,369.551971 
	C783.683716,368.072723 782.340942,365.753937 781.353943,365.725525 
	C771.430298,365.439789 761.495117,365.551605 751.068420,365.551605 
	C751.965454,368.456604 752.592712,370.649811 753.317871,372.810120 
	C757.868469,386.366699 762.433594,399.918396 767.007507,413.467102 
	C779.667175,450.966522 792.352783,488.457184 804.956543,525.975342 
	C805.868042,528.688721 807.047119,530.070251 810.212158,529.919067 
	C816.030579,529.641052 821.879089,529.669128 827.700562,529.914490 
	C830.725891,530.042053 832.218262,529.056641 833.067444,526.143616 
	C834.881775,519.920105 836.994568,513.783508 839.197571,506.837433 
M518.076904,480.161011 
	C518.699341,478.818726 519.808105,477.494659 519.859192,476.130981 
	C520.070923,470.483795 520.472656,464.770721 519.881348,459.179504 
	C517.655640,438.133698 507.984497,421.398712 489.027588,411.390045 
	C461.458130,396.834290 426.983551,406.231995 409.152100,432.455658 
	C392.061615,457.589600 396.448273,496.068787 418.924011,515.631409 
	C438.520752,532.688171 461.110718,535.450195 485.367889,528.316772 
	C496.026947,525.182312 505.230774,519.417603 512.885925,511.894989 
	C506.948456,505.773773 501.313568,499.964447 495.657196,494.132996 
	C481.024170,506.435822 464.724182,510.210663 446.910553,502.694336 
	C437.344604,498.658112 430.973267,491.202148 428.795593,480.191742 
	C458.679352,480.191742 487.971802,480.191742 518.076904,480.161011 
M644.499084,529.830505 
	C650.226929,529.830505 655.954773,529.830505 662.875366,529.830505 
	C647.280945,508.251984 632.436646,487.711517 617.570557,467.140808 
	C631.854492,447.160553 645.810242,427.639252 660.310852,407.355927 
	C651.295227,407.355927 643.306458,407.866150 635.415955,407.204529 
	C628.309082,406.608643 623.334961,408.474365 620.068542,415.023376 
	C618.525513,418.117096 616.134644,420.784607 614.158203,423.666046 
	C608.373352,432.099640 602.603821,440.543640 596.722961,449.137421 
	C587.525024,435.934479 578.713806,423.226746 569.802979,410.589203 
	C568.920715,409.337982 567.448608,407.656281 566.218506,407.629486 
	C555.500854,407.396057 544.775940,407.494720 533.069519,407.494720 
	C547.601929,428.034363 561.486450,447.658356 575.305176,467.189362 
	C560.271729,488.041138 545.465881,508.577332 530.174072,529.787415 
	C541.775635,529.787415 552.090576,529.942627 562.392639,529.646545 
	C564.282288,529.592224 566.711121,528.146118 567.875427,526.584961 
	C572.247742,520.722412 576.152649,514.513733 580.320862,508.495850 
	C585.489807,501.033234 590.746155,493.631226 596.195251,485.875000 
	C603.389893,496.243225 610.999939,505.636749 616.820251,516.032349 
	C622.860779,526.821228 630.460632,532.438904 643.002625,529.833069 
	C643.162231,529.799866 643.334900,529.829407 644.499084,529.830505 
M1164.410034,407.380066 
	C1157.784058,407.380066 1151.158081,407.380066 1144.405518,407.380066 
	C1144.405518,448.474121 1144.405518,488.965240 1144.405518,529.494690 
	C1154.171387,529.494690 1163.560181,529.494690 1173.420044,529.494690 
	C1173.420044,527.515564 1173.416504,525.882690 1173.420654,524.249878 
	C1173.461304,508.432770 1173.288208,492.610626 1173.660156,476.801300 
	C1173.791504,471.219574 1174.586426,465.461670 1176.235352,460.142853 
	C1181.456055,443.302216 1193.796143,434.706726 1211.405518,434.894592 
	C1213.010254,434.911713 1214.615112,434.896881 1216.481201,434.896881 
	C1216.481201,424.869598 1216.481201,415.293823 1216.481201,405.324371 
	C1196.220459,404.457123 1182.860962,414.283691 1174.322388,432.099548 
	C1173.984863,431.844543 1173.647339,431.589539 1173.309814,431.334503 
	C1173.309814,423.474731 1173.309814,415.614929 1173.309814,407.382263 
	C1170.308228,407.382263 1167.841553,407.382263 1164.410034,407.380066 
M1045.929077,502.501770 
	C1045.939575,498.013275 1046.104858,493.516266 1045.860107,489.041748 
	C1045.792236,487.801819 1044.506714,486.628540 1043.779907,485.424683 
	C1043.207275,486.617065 1042.168579,487.798706 1042.140869,489.003632 
	C1041.999023,495.150452 1042.382080,501.316406 1042.077515,507.450623 
	C1041.720703,514.638550 1043.593628,522.041992 1039.899536,529.013733 
	C1039.333862,530.081482 1040.749390,533.517639 1041.860840,533.857727 
	C1043.697876,534.419800 1046.613892,533.993103 1047.970215,532.763916 
	C1049.002808,531.828064 1049.191650,528.127258 1048.239990,527.181213 
	C1045.435547,524.393188 1045.752441,521.243408 1045.785156,517.962891 
	C1045.833252,513.142151 1045.877563,508.321442 1045.929077,502.501770 
M1003.275208,504.305573 
	C1001.483093,504.724396 999.576050,504.920197 997.989197,505.737457 
	C997.644043,505.915222 998.004578,508.820923 998.842224,509.556152 
	C999.682312,510.293396 1002.464111,510.403961 1002.749084,509.885132 
	C1003.546814,508.432800 1003.494507,506.513489 1003.275208,504.305573 
M1009.362427,511.906830 
	C1007.719360,512.240540 1005.937988,512.312683 1004.515747,513.064270 
	C1004.077637,513.295715 1004.160828,515.872070 1004.827759,516.496887 
	C1005.687134,517.302185 1007.373596,517.224792 1008.703735,517.527527 
	C1009.078918,515.839722 1009.454041,514.151917 1009.362427,511.906830 
z"/>
<path fill="#F0F7F9" opacity="1.000000" stroke="none" 
	d="
M839.091309,507.224365 
	C836.994568,513.783508 834.881775,519.920105 833.067444,526.143616 
	C832.218262,529.056641 830.725891,530.042053 827.700562,529.914490 
	C821.879089,529.669128 816.030579,529.641052 810.212158,529.919067 
	C807.047119,530.070251 805.868042,528.688721 804.956543,525.975342 
	C792.352783,488.457184 779.667175,450.966522 767.007507,413.467102 
	C762.433594,399.918396 757.868469,386.366699 753.317871,372.810120 
	C752.592712,370.649811 751.965454,368.456604 751.068420,365.551605 
	C761.495117,365.551605 771.430298,365.439789 781.353943,365.725525 
	C782.340942,365.753937 783.683716,368.072723 784.145325,369.551971 
	C795.242126,405.109192 806.239746,440.697418 817.265869,476.276672 
	C817.558350,477.220367 817.968750,478.127472 818.732239,480.112793 
	C830.754578,441.301697 842.487427,403.425171 854.237061,365.494476 
	C863.094543,365.494476 871.567688,365.494476 880.541321,365.494476 
	C892.256958,403.296875 903.987976,441.149017 915.719055,479.001190 
	C916.031677,479.023285 916.344299,479.045410 916.656982,479.067505 
	C918.803894,472.240051 920.963989,465.416656 923.095520,458.584381 
	C932.357910,428.896027 941.670288,399.222992 950.784180,369.489105 
	C951.761902,366.299194 953.246033,365.410614 956.375000,365.474152 
	C965.175842,365.652924 973.982788,365.536560 983.580017,365.536560 
	C981.821472,370.986725 980.264771,375.981903 978.601013,380.941223 
	C962.738464,428.223572 946.766541,475.469727 931.107605,522.819458 
	C929.323303,528.214600 927.121765,530.813538 921.159668,529.950500 
	C917.078918,529.359802 912.795166,529.427063 908.692383,529.932312 
	C904.129944,530.494080 902.347229,528.641785 901.072815,524.506653 
	C892.550903,496.856293 883.814636,469.271912 875.132507,441.670929 
	C872.654663,433.793762 870.125732,425.932648 867.303589,417.069824 
	C857.738220,447.620605 848.467896,477.229004 839.091309,507.224365 
z"/>
<path fill="#F7FAFB" opacity="1.000000" stroke="none" 
	d="
M375.237335,529.793091 
	C368.408051,529.791504 361.573669,529.635071 354.751770,529.858582 
	C351.689392,529.958862 350.007690,528.775757 348.289459,526.340332 
	C322.675293,490.035339 296.948486,453.809875 271.253693,417.561768 
	C270.336273,416.267578 269.474274,414.934082 267.865173,412.550446 
	C267.865173,452.267975 267.865173,490.762939 267.865173,529.559204 
	C258.116028,529.559204 248.887146,529.559204 239.341522,529.559204 
	C239.341522,474.939697 239.341522,420.543945 239.341522,365.512054 
	C248.435455,365.512054 257.558685,365.341888 266.662109,365.689728 
	C268.078064,365.743835 269.652039,367.986847 270.734558,369.514191 
	C295.081909,403.866455 319.370453,438.260406 343.672089,472.645081 
	C344.211975,473.409058 344.774719,474.156921 346.031219,475.876160 
	C346.031219,438.577911 346.031219,402.409363 346.031219,365.043823 
	C356.186066,365.502625 365.836609,365.938629 375.545685,367.156494 
	C375.565918,398.579712 375.548340,429.221039 375.482605,459.862335 
	C375.432587,483.172638 375.321320,506.482849 375.237335,529.793091 
z"/>
<path fill="#E5F5FA" opacity="1.000000" stroke="none" 
	d="
M1349.028442,362.838196 
	C1350.488403,363.282867 1351.948486,363.727509 1353.427856,365.003113 
	C1353.447266,420.370758 1353.447266,474.907501 1353.447266,529.470459 
	C1343.406616,529.470459 1334.305786,529.470459 1324.432129,529.470459 
	C1324.432129,523.409424 1324.432129,517.561401 1324.432129,510.258057 
	C1317.816528,519.750122 1309.938110,525.099670 1301.020264,529.093140 
	C1300.493286,529.210815 1299.966309,529.328491 1298.996826,529.596497 
	C1298.339966,529.733398 1298.208496,529.831360 1298.159790,530.040710 
	C1298.159790,530.040710 1298.061157,529.970337 1297.602417,529.988892 
	C1274.991821,534.923523 1256.540649,528.544922 1242.467773,510.954468 
	C1223.091064,486.734558 1223.393311,450.005890 1242.589111,425.611328 
	C1262.201538,400.687286 1297.854736,397.821198 1319.489380,419.444427 
	C1320.911621,420.865845 1322.213623,422.407562 1324.527100,424.938782 
	C1324.527100,403.554382 1324.527100,383.530182 1324.527100,362.838196 
	C1333.116211,362.838196 1341.072266,362.838196 1349.028442,362.838196 
M1323.999146,457.776215 
	C1323.591064,456.510498 1323.275513,455.205780 1322.760620,453.985046 
	C1317.650391,441.866852 1308.766235,434.046906 1295.655396,432.379974 
	C1283.319336,430.811615 1272.767700,435.385956 1265.785645,445.702026 
	C1256.615356,459.251160 1256.056885,473.983459 1263.903442,488.233429 
	C1275.692627,509.643890 1303.801514,511.150482 1318.195557,491.435730 
	C1325.414429,481.548492 1326.569092,470.351471 1323.999146,457.776215 
z"/>
<path fill="#F6FAFB" opacity="1.000000" stroke="none" 
	d="
M517.670532,480.176392 
	C487.971802,480.191742 458.679352,480.191742 428.795593,480.191742 
	C430.973267,491.202148 437.344604,498.658112 446.910553,502.694336 
	C464.724182,510.210663 481.024170,506.435822 495.657196,494.132996 
	C501.313568,499.964447 506.948456,505.773773 512.885925,511.894989 
	C505.230774,519.417603 496.026947,525.182312 485.367889,528.316772 
	C461.110718,535.450195 438.520752,532.688171 418.924011,515.631409 
	C396.448273,496.068787 392.061615,457.589600 409.152100,432.455658 
	C426.983551,406.231995 461.458130,396.834290 489.027588,411.390045 
	C507.984497,421.398712 517.655640,438.133698 519.881348,459.179504 
	C520.472656,464.770721 520.070923,470.483795 519.859192,476.130981 
	C519.808105,477.494659 518.699341,478.818726 517.670532,480.176392 
M489.128204,449.622070 
	C482.213745,434.263092 469.032471,427.557220 453.117645,431.301941 
	C439.319855,434.548523 428.892761,446.690002 429.500610,458.942352 
	C449.874329,458.942352 470.253510,458.942352 491.192108,458.942352 
	C490.507294,455.823090 489.911224,453.107910 489.128204,449.622070 
z"/>
<path fill="#F0F7F9" opacity="1.000000" stroke="none" 
	d="
M644.000244,529.830078 
	C643.334900,529.829407 643.162231,529.799866 643.002625,529.833069 
	C630.460632,532.438904 622.860779,526.821228 616.820251,516.032349 
	C610.999939,505.636749 603.389893,496.243225 596.195251,485.875000 
	C590.746155,493.631226 585.489807,501.033234 580.320862,508.495850 
	C576.152649,514.513733 572.247742,520.722412 567.875427,526.584961 
	C566.711121,528.146118 564.282288,529.592224 562.392639,529.646545 
	C552.090576,529.942627 541.775635,529.787415 530.174072,529.787415 
	C545.465881,508.577332 560.271729,488.041138 575.305176,467.189362 
	C561.486450,447.658356 547.601929,428.034363 533.069519,407.494720 
	C544.775940,407.494720 555.500854,407.396057 566.218506,407.629486 
	C567.448608,407.656281 568.920715,409.337982 569.802979,410.589203 
	C578.713806,423.226746 587.525024,435.934479 596.722961,449.137421 
	C602.603821,440.543640 608.373352,432.099640 614.158203,423.666046 
	C616.134644,420.784607 618.525513,418.117096 620.068542,415.023376 
	C623.334961,408.474365 628.309082,406.608643 635.415955,407.204529 
	C643.306458,407.866150 651.295227,407.355927 660.310852,407.355927 
	C645.810242,427.639252 631.854492,447.160553 617.570557,467.140808 
	C632.436646,487.711517 647.280945,508.251984 662.875366,529.830505 
	C655.954773,529.830505 650.226929,529.830505 644.000244,529.830078 
z"/>
<path fill="#EFF6F9" opacity="1.000000" stroke="none" 
	d="
M749.935791,433.843048 
	C749.502502,433.913513 749.069153,433.984009 747.861267,434.049774 
	C736.996216,434.045044 726.905701,434.045044 716.448242,434.045044 
	C716.448242,453.046417 716.449951,471.365967 716.447632,489.685516 
	C716.446228,500.612396 721.852234,505.736267 732.801880,504.486542 
	C737.503418,503.949921 742.075745,502.281158 747.031494,501.045837 
	C748.125854,508.936127 749.240112,516.969360 750.354309,525.002625 
	C737.021118,534.141174 711.178101,533.574280 698.895752,523.662842 
	C689.655518,516.206299 687.324280,505.692383 687.197754,494.579712 
	C686.981750,475.602295 687.101257,456.621033 687.080200,437.641388 
	C687.079102,436.658600 687.080078,435.675812 687.080078,433.617767 
	C681.481384,433.617767 676.087036,433.617767 670.526123,432.855865 
	C670.359619,423.992950 670.359619,415.891937 670.359619,407.258057 
	C676.355652,407.258057 681.588074,407.258057 687.386230,407.258057 
	C687.386230,395.016632 687.386230,383.310486 687.386230,371.619202 
	C697.384094,371.619202 706.791504,371.619202 716.736816,371.619202 
	C716.736816,383.684723 716.736816,395.401611 716.736816,407.540833 
	C728.053528,407.540833 738.830444,407.540833 749.935791,407.540833 
	C749.935791,416.597809 749.935791,425.220428 749.935791,433.843048 
z"/>
<path fill="#E4F4FA" opacity="1.000000" stroke="none" 
	d="
M1164.892456,407.381165 
	C1167.841553,407.382263 1170.308228,407.382263 1173.309814,407.382263 
	C1173.309814,415.614929 1173.309814,423.474731 1173.309814,431.334503 
	C1173.647339,431.589539 1173.984863,431.844543 1174.322388,432.099548 
	C1182.860962,414.283691 1196.220459,404.457123 1216.481201,405.324371 
	C1216.481201,415.293823 1216.481201,424.869598 1216.481201,434.896881 
	C1214.615112,434.896881 1213.010254,434.911713 1211.405518,434.894592 
	C1193.796143,434.706726 1181.456055,443.302216 1176.235352,460.142853 
	C1174.586426,465.461670 1173.791504,471.219574 1173.660156,476.801300 
	C1173.288208,492.610626 1173.461304,508.432770 1173.420654,524.249878 
	C1173.416504,525.882690 1173.420044,527.515564 1173.420044,529.494690 
	C1163.560181,529.494690 1154.171387,529.494690 1144.405518,529.494690 
	C1144.405518,488.965240 1144.405518,448.474121 1144.405518,407.380066 
	C1151.158081,407.380066 1157.784058,407.380066 1164.892456,407.381165 
z"/>
<path fill="#325C7A" opacity="1.000000" stroke="none" 
	d="
M1348.859131,362.494934 
	C1341.072266,362.838196 1333.116211,362.838196 1324.527100,362.838196 
	C1324.527100,383.530182 1324.527100,403.554382 1324.527100,424.938782 
	C1322.213623,422.407562 1320.911621,420.865845 1319.489380,419.444427 
	C1297.854736,397.821198 1262.201538,400.687286 1242.589111,425.611328 
	C1223.393311,450.005890 1223.091064,486.734558 1242.467773,510.954468 
	C1256.540649,528.544922 1274.991821,534.923523 1297.566406,530.037659 
	C1296.355835,531.242676 1294.820801,533.255432 1293.073853,533.460083 
	C1278.635742,535.151245 1265.351440,531.732971 1253.132324,523.853821 
	C1249.753174,521.674927 1246.068237,519.969910 1243.223755,518.427185 
	C1242.263428,516.008972 1241.813843,513.624878 1240.527710,511.845551 
	C1233.323608,501.879272 1228.594360,490.717560 1226.471069,478.811310 
	C1225.307129,472.284912 1226.743774,465.270752 1227.184082,458.487946 
	C1227.852661,448.186218 1231.870117,438.951935 1236.645020,429.997833 
	C1237.176514,429.001221 1238.117676,428.231018 1238.723389,427.264618 
	C1240.321045,424.715454 1241.838745,422.116028 1242.381226,419.079529 
	C1248.290161,415.724548 1254.392090,412.664581 1260.065674,408.950073 
	C1270.239380,402.289215 1281.513184,403.074097 1292.801880,403.237671 
	C1300.903442,403.355103 1307.245972,408.066864 1314.213257,411.111877 
	C1315.723511,411.771912 1316.600342,413.772858 1317.949219,414.949493 
	C1318.843506,415.729645 1320.272583,416.802002 1321.072998,416.542511 
	C1321.962280,416.254181 1322.965942,414.592224 1322.948608,413.544220 
	C1322.886230,409.744446 1322.202515,405.954865 1322.141235,402.155212 
	C1321.955811,390.673706 1321.772949,379.184998 1322.046875,367.709991 
	C1322.095093,365.688660 1324.260010,362.072357 1325.600708,361.999237 
	C1333.271362,361.580658 1340.988403,362.010132 1348.859131,362.494934 
z"/>
<path fill="#37BCE2" opacity="1.000000" stroke="none" 
	d="
M1059.964355,482.990326 
	C1062.939697,486.653595 1065.809326,490.409454 1068.917480,493.956299 
	C1072.633057,498.196259 1076.690430,502.140381 1080.339478,506.433807 
	C1083.157227,509.749023 1086.694824,509.502197 1090.354614,509.226318 
	C1091.667969,509.127350 1093.236206,508.348053 1094.217651,508.832489 
	C1095.814575,509.620911 1097.867065,511.024658 1098.158569,512.482483 
	C1098.444580,513.912231 1097.158081,516.536194 1095.854614,517.161072 
	C1094.504517,517.808350 1091.230225,517.260315 1090.676636,516.227722 
	C1088.936401,512.982117 1086.302124,512.807556 1083.283569,512.326721 
	C1081.531982,512.047729 1079.696777,510.755798 1078.397949,509.430786 
	C1071.652710,502.549957 1065.080444,495.499878 1058.415039,488.540253 
	C1057.317383,487.394257 1056.056274,486.404846 1054.508789,485.018890 
	C1053.261353,493.901093 1054.064819,501.329102 1061.185303,507.035645 
	C1063.764771,509.102905 1066.030396,511.804413 1067.720215,514.644348 
	C1068.666870,516.235413 1068.542480,518.777405 1068.171265,520.753906 
	C1067.770020,522.889282 1066.832275,525.104980 1065.520264,526.820435 
	C1064.729126,527.854736 1062.763184,528.460632 1061.355469,528.410339 
	C1060.143433,528.367004 1057.870605,526.660767 1057.948242,526.474854 
	C1059.838745,521.943787 1054.085693,516.186157 1060.851074,512.433228 
	C1059.498169,510.857971 1058.659424,509.335388 1057.376465,508.476410 
	C1049.170288,502.982117 1049.677979,494.652985 1050.613892,486.569855 
	C1051.032104,482.957733 1054.419189,481.160400 1058.670654,481.221619 
	C1059.005493,480.999268 1058.982056,480.963745 1058.781128,481.302002 
	C1059.058716,482.103912 1059.537109,482.567566 1060.004883,483.018372 
	C1059.994019,483.005554 1059.964355,482.990326 1059.964355,482.990326 
M1062.045654,514.313171 
	C1061.687744,516.656555 1061.225952,518.994263 1061.098755,521.350098 
	C1061.082031,521.657776 1063.543091,522.436340 1063.580811,522.360596 
	C1064.486450,520.544678 1065.597046,518.680359 1065.793823,516.736084 
	C1065.872070,515.962036 1063.858643,514.976318 1062.045654,514.313171 
z"/>
<path fill="#325C7A" opacity="1.000000" stroke="none" 
	d="
M1301.296997,529.275757 
	C1309.938110,525.099670 1317.816528,519.750122 1324.432129,510.258057 
	C1324.432129,517.561401 1324.432129,523.409424 1324.432129,529.470459 
	C1334.305786,529.470459 1343.406616,529.470459 1353.447266,529.470459 
	C1353.447266,474.907501 1353.447266,420.370758 1353.590820,365.382812 
	C1354.483032,366.106598 1355.894409,367.295654 1355.869873,368.454285 
	C1355.737305,374.716095 1354.944092,380.969788 1354.931641,387.227386 
	C1354.841064,432.723694 1354.886475,478.220306 1354.879395,523.716797 
	C1354.878418,530.026001 1350.818726,533.008850 1344.461060,532.357056 
	C1339.203735,531.817993 1333.812622,531.864136 1328.544800,532.347656 
	C1323.062988,532.850830 1322.437012,532.606384 1323.019409,527.242859 
	C1323.126831,526.253296 1323.132568,525.244324 1323.090332,524.248352 
	C1322.942993,520.761169 1321.261475,520.338989 1318.490479,521.930664 
	C1314.922607,523.980042 1311.392212,526.121826 1307.689453,527.897888 
	C1305.829346,528.790039 1303.623291,528.961060 1301.296997,529.275757 
z"/>
<path fill="#34BAE3" opacity="1.000000" stroke="none" 
	d="
M1057.986206,445.026245 
	C1061.990356,441.064545 1067.209473,441.434204 1072.229614,440.749359 
	C1074.354614,440.459473 1076.703491,439.113129 1078.211182,437.538788 
	C1081.701904,433.893646 1085.281616,430.987427 1090.721680,432.384247 
	C1090.702271,424.364746 1091.759521,423.199188 1096.667969,425.474121 
	C1095.377563,426.563385 1094.302490,427.275391 1093.227295,427.987366 
	C1094.456543,428.654694 1095.685669,429.322052 1096.914917,429.989380 
	C1096.359863,430.733887 1095.804810,431.478394 1094.320312,433.469696 
	C1097.193237,432.670776 1098.777588,431.839813 1100.328125,431.898651 
	C1102.233154,431.970917 1104.741577,432.237000 1105.799438,433.453705 
	C1106.646240,434.427704 1106.370605,437.909637 1105.421021,438.555481 
	C1103.988281,439.530060 1101.108765,439.799377 1099.584961,438.984009 
	C1090.763428,434.264069 1087.841431,434.725830 1080.191650,440.548615 
	C1077.146851,442.866150 1072.725098,443.384766 1068.917603,444.685577 
	C1067.131714,445.295746 1065.316284,445.818909 1063.514282,446.381500 
	C1063.742676,447.157990 1063.971069,447.934448 1064.199463,448.710907 
	C1069.732666,446.845673 1076.155396,450.944031 1081.144409,445.110504 
	C1081.581787,444.599030 1082.895508,444.213043 1083.416382,444.491211 
	C1090.555908,448.303253 1098.130859,445.804199 1105.496216,446.203979 
	C1106.456421,446.256073 1107.379395,446.991364 1108.319824,447.410248 
	C1107.485107,448.203278 1106.769897,449.401825 1105.786987,449.691589 
	C1104.403564,450.099426 1102.813354,449.740021 1101.325806,449.870544 
	C1090.726929,450.800415 1080.128052,451.734406 1069.541016,452.786896 
	C1068.487183,452.891632 1067.563965,454.019165 1066.486938,454.266663 
	C1065.531250,454.486237 1063.885986,454.525818 1063.512451,453.981323 
	C1061.667725,451.292419 1060.144409,448.383026 1058.255859,445.276093 
	C1058.004028,445.000793 1057.986206,445.026245 1057.986206,445.026245 
M1063.438477,449.708221 
	C1063.512207,449.538879 1063.586060,449.369507 1063.659912,449.200134 
	C1063.476196,449.243866 1063.292603,449.287628 1063.438477,449.708221 
z"/>
<path fill="#34BAE3" opacity="1.000000" stroke="none" 
	d="
M1058.016602,444.991547 
	C1054.824707,444.904633 1053.151489,444.200745 1054.409424,440.199890 
	C1055.317871,437.310944 1054.894897,433.957825 1054.821045,430.817505 
	C1054.734131,427.115417 1056.529541,424.886871 1059.817139,423.640564 
	C1067.500610,420.727692 1070.999512,413.851379 1069.150757,405.638153 
	C1068.833984,404.231171 1069.097412,402.576874 1069.562866,401.195099 
	C1069.674927,400.862091 1072.398804,400.777100 1072.641479,401.243652 
	C1073.253052,402.420166 1073.266968,403.974823 1073.279541,405.380096 
	C1073.300293,407.698242 1072.635864,410.132263 1073.139160,412.314819 
	C1074.421997,417.878876 1070.835571,421.453033 1068.224854,425.365997 
	C1067.593140,426.312775 1065.516968,426.188324 1064.261597,426.852478 
	C1062.509399,427.779388 1060.744629,428.818726 1059.336426,430.174622 
	C1058.929321,430.566559 1059.692627,433.124451 1059.978394,433.135223 
	C1062.237061,433.220764 1064.956299,433.662659 1066.688477,432.607361 
	C1070.663086,430.186066 1074.783813,427.469147 1077.592896,423.889404 
	C1079.069580,422.007416 1078.316528,417.991943 1077.840576,415.058197 
	C1077.241943,411.367889 1078.793945,408.348328 1081.944824,408.870209 
	C1083.205811,409.079102 1084.817871,410.148071 1085.300659,411.250214 
	C1085.796265,412.381775 1085.623413,414.803070 1084.848389,415.321136 
	C1081.564453,417.515747 1082.470581,420.727875 1081.885742,423.711945 
	C1081.529175,425.531311 1079.753906,428.320831 1078.403931,428.449402 
	C1075.126953,428.761475 1073.593018,430.174255 1071.937744,432.809296 
	C1070.778931,434.653870 1068.068115,436.763702 1066.158691,436.664734 
	C1060.345093,436.363373 1058.693115,439.742493 1057.841064,444.656799 
	C1057.986206,445.026245 1058.004028,445.000793 1058.016602,444.991547 
z"/>
<path fill="#035680" opacity="1.000000" stroke="none" 
	d="
M986.004578,427.013550 
	C986.691956,422.436523 990.297119,424.988403 993.159180,424.182861 
	C999.486145,428.737366 1005.238525,433.429504 1011.302307,438.375732 
	C1011.739990,436.967468 1011.997375,436.511475 1011.999939,436.054016 
	C1012.005554,435.075165 1011.879333,434.095581 1011.807129,433.116302 
	C1012.083130,432.522919 1012.414185,431.948059 1012.621338,431.331543 
	C1012.883850,430.550171 1013.045654,429.734955 1013.806519,429.083801 
	C1014.619385,432.291534 1014.967407,435.345490 1015.112732,438.409088 
	C1015.339355,443.187561 1020.070435,448.303497 1024.809814,448.738342 
	C1024.433960,452.179749 1024.237671,455.657776 1023.548340,459.035187 
	C1023.388245,459.819794 1021.549011,460.261719 1020.178711,460.430542 
	C1019.019226,459.004303 1018.325745,457.447144 1017.270264,457.141907 
	C1015.591370,456.656403 1013.670837,457.023163 1011.852966,456.998688 
	C1005.749512,456.916595 999.232910,458.585205 994.551208,452.593628 
	C994.056519,451.960480 992.407715,452.229095 991.294373,452.079346 
	C989.059998,451.419861 986.825684,450.760376 984.517578,449.760193 
	C987.163208,449.260010 989.882446,449.100555 992.601746,448.941071 
	C992.699280,448.388123 992.796814,447.835175 992.894409,447.282227 
	C991.203613,446.889435 989.476135,446.608551 987.833069,446.070190 
	C986.392273,445.598083 985.046204,444.837158 983.658264,444.203827 
	C985.712952,443.185608 987.767700,442.167389 990.302856,441.389038 
	C995.901855,447.701080 1000.292419,454.993256 1010.089783,453.251648 
	C1010.089783,451.433167 1010.089783,449.696381 1010.414673,447.749634 
	C1013.895691,450.116699 1017.051758,452.693665 1020.825073,455.774689 
	C1020.970642,452.064026 1013.389893,442.169159 1010.532776,442.015320 
	C1005.709229,441.755646 1003.917175,438.264343 1001.335815,435.275146 
	C997.323059,430.628357 992.151489,427.844269 986.004578,427.013550 
z"/>
<path fill="#09406D" opacity="1.000000" stroke="none" 
	d="
M750.078857,434.123657 
	C749.935791,425.220428 749.935791,416.597809 749.935791,407.540833 
	C738.830444,407.540833 728.053528,407.540833 716.736816,407.540833 
	C716.736816,395.401611 716.736816,383.684723 716.736816,371.619202 
	C706.791504,371.619202 697.384094,371.619202 687.386230,371.619202 
	C687.386230,383.310486 687.386230,395.016632 687.386230,407.258057 
	C681.588074,407.258057 676.355652,407.258057 670.359619,407.258057 
	C670.359619,415.891937 670.359619,423.992950 670.240234,432.549530 
	C669.429321,431.948730 668.126770,430.881714 668.144897,429.837677 
	C668.267639,422.780792 668.651733,415.727905 668.989075,408.675507 
	C669.157166,405.161438 671.380432,404.784790 674.239929,405.254456 
	C681.851379,406.504669 684.937744,403.854584 684.985901,396.028534 
	C685.026917,389.365692 684.936157,382.701721 685.017578,376.039612 
	C685.083008,370.684235 686.605347,369.096375 691.813782,369.024445 
	C698.642151,368.930054 705.474243,368.914886 712.302002,369.028168 
	C717.975525,369.122284 720.251221,372.719788 718.552429,378.359711 
	C718.186157,379.575958 718.263733,380.958160 718.303345,382.258820 
	C718.474854,387.895294 719.399109,393.615967 718.710999,399.139282 
	C718.106567,403.991547 720.770020,405.458008 724.015686,405.750275 
	C728.051025,406.113617 732.197144,405.171295 736.301697,404.881653 
	C737.695129,404.783325 739.107666,404.950317 740.511169,405.003876 
	C742.065247,405.063141 743.745239,405.545044 745.148987,405.116974 
	C749.138794,403.900482 751.485657,404.970459 751.989319,409.262634 
	C752.389709,412.675232 752.013062,416.177399 752.005554,419.639832 
	C751.993835,425.070709 752.002441,430.501617 752.002441,436.059296 
	C751.547363,435.636261 750.884644,435.020233 750.078857,434.123657 
z"/>
<path fill="#09406D" opacity="1.000000" stroke="none" 
	d="
M750.657837,524.893555 
	C749.240112,516.969360 748.125854,508.936127 747.031494,501.045837 
	C742.075745,502.281158 737.503418,503.949921 732.801880,504.486542 
	C721.852234,505.736267 716.446228,500.612396 716.447632,489.685516 
	C716.449951,471.365967 716.448242,453.046417 716.448242,434.045044 
	C726.905701,434.045044 736.996216,434.045044 747.546143,434.146698 
	C746.059387,435.165894 744.154480,436.751801 742.159424,436.874756 
	C736.354004,437.232452 730.510925,436.920410 724.685669,437.030640 
	C719.292419,437.132690 718.550964,438.761749 718.698853,444.119446 
	C719.079834,457.925903 718.899780,471.747223 719.018982,485.561951 
	C719.060852,490.416138 717.740723,495.678955 722.120850,499.501251 
	C723.371338,500.592529 725.202393,501.848145 726.658569,501.726532 
	C732.200134,501.263824 737.800354,500.682526 743.179016,499.343781 
	C747.616333,498.239319 749.883728,500.285217 750.487427,503.750488 
	C751.584167,510.046021 751.891296,516.483398 752.385437,522.872620 
	C752.431580,523.469604 751.460266,524.145325 750.657837,524.893555 
z"/>
<path fill="#34BAE3" opacity="1.000000" stroke="none" 
	d="
M1032.991699,392.092377 
	C1033.821045,390.432159 1034.713135,387.323730 1035.468994,387.356506 
	C1039.204102,387.518677 1037.519043,390.317322 1037.540283,392.541138 
	C1037.588257,397.564789 1035.562622,403.186890 1042.117188,407.070587 
	C1042.117188,404.801086 1041.945557,402.512634 1042.193115,400.270477 
	C1042.308350,399.227722 1043.237427,398.274841 1043.797485,397.281189 
	C1044.469604,398.234863 1045.721436,399.186096 1045.725586,400.142578 
	C1045.776245,412.119781 1045.717651,424.099213 1045.467896,436.073456 
	C1045.438477,437.486359 1044.107422,438.872131 1043.379883,440.270508 
	C1042.667847,438.831238 1041.397583,437.413727 1041.340454,435.948853 
	C1041.093506,429.625580 1041.201538,423.288422 1041.306885,416.213013 
	C1041.567017,413.646912 1042.664185,411.972015 1039.170532,411.340912 
	C1037.146606,410.975311 1034.852417,407.679016 1034.190796,405.284241 
	C1033.299316,402.057648 1033.863647,398.428955 1033.803223,394.972809 
	C1033.825806,394.526520 1033.848267,394.080231 1033.769287,393.097717 
	C1033.515991,392.299255 1033.290527,392.142883 1032.991699,392.092377 
z"/>
<path fill="#3EBCE1" opacity="1.000000" stroke="none" 
	d="
M1015.977295,489.957520 
	C1017.065552,488.683594 1018.153870,487.409698 1019.665894,485.651825 
	C1022.603210,483.619141 1023.923035,479.737579 1027.949707,481.145844 
	C1028.041016,481.465759 1028.234985,481.700806 1028.791748,482.359924 
	C1029.344849,487.159943 1029.469727,491.470886 1029.973633,495.737091 
	C1030.621094,501.219208 1029.070312,505.485870 1024.200195,508.425507 
	C1019.642883,511.176270 1019.758545,515.178772 1020.918945,519.805786 
	C1021.364929,521.584106 1020.107239,523.789734 1019.625854,525.800659 
	C1015.348022,525.701050 1014.355408,523.702148 1016.260620,520.004639 
	C1016.635864,519.276367 1017.343262,518.449524 1017.230286,517.780823 
	C1015.987793,510.426025 1021.646484,506.831299 1024.996338,501.667419 
	C1027.607910,497.641693 1026.929932,491.482056 1027.713745,486.270721 
	C1027.170288,486.053802 1026.626709,485.836884 1026.083130,485.619965 
	C1022.239746,488.788971 1018.396362,491.958008 1014.548584,494.732239 
	C1015.021912,492.877502 1015.499634,491.417511 1015.977295,489.957520 
z"/>
<path fill="#30B6DB" opacity="1.000000" stroke="none" 
	d="
M1045.926270,503.001251 
	C1045.877563,508.321442 1045.833252,513.142151 1045.785156,517.962891 
	C1045.752441,521.243408 1045.435547,524.393188 1048.239990,527.181213 
	C1049.191650,528.127258 1049.002808,531.828064 1047.970215,532.763916 
	C1046.613892,533.993103 1043.697876,534.419800 1041.860840,533.857727 
	C1040.749390,533.517639 1039.333862,530.081482 1039.899536,529.013733 
	C1043.593628,522.041992 1041.720703,514.638550 1042.077515,507.450623 
	C1042.382080,501.316406 1041.999023,495.150452 1042.140869,489.003632 
	C1042.168579,487.798706 1043.207275,486.617065 1043.779907,485.424683 
	C1044.506714,486.628540 1045.792236,487.801819 1045.860107,489.041748 
	C1046.104858,493.516266 1045.939575,498.013275 1045.926270,503.001251 
z"/>
<path fill="#37BCE2" opacity="1.000000" stroke="none" 
	d="
M1059.017700,481.016724 
	C1059.809082,479.471802 1060.588257,477.909363 1061.676880,476.178284 
	C1061.986328,476.009644 1061.959961,475.986053 1062.126465,476.361969 
	C1063.044312,476.829773 1063.795776,476.921661 1064.780762,477.007690 
	C1065.325073,476.997955 1065.635864,476.995514 1065.954956,477.113220 
	C1065.963257,477.232025 1065.982544,477.469421 1065.982544,477.469421 
	C1066.045166,478.628876 1065.635132,480.252960 1066.245483,480.873901 
	C1070.910034,485.619324 1075.576782,490.404877 1080.672852,494.663055 
	C1082.685547,496.344788 1086.010498,498.310852 1087.810547,493.566925 
	C1087.935547,493.237640 1091.566040,493.815338 1091.563354,493.922180 
	C1091.479004,497.362518 1094.058228,496.802002 1096.086670,497.157898 
	C1098.762573,497.627411 1101.042969,498.492096 1099.831177,501.678619 
	C1095.953613,501.275421 1092.190063,500.249207 1088.586182,500.651581 
	C1082.514771,501.329468 1078.790161,498.305389 1074.850220,494.442230 
	C1070.434692,490.112671 1065.383911,486.430939 1060.286865,482.728851 
	C1059.964355,482.990326 1059.994019,483.005554 1060.227051,482.693481 
	C1059.967529,481.908844 1059.474731,481.436279 1058.982056,480.963745 
	C1058.982056,480.963745 1059.005493,480.999268 1059.017700,481.016724 
z"/>
<path fill="#34BAE3" opacity="1.000000" stroke="none" 
	d="
M1066.234497,477.729370 
	C1065.982544,477.469421 1065.963257,477.232025 1066.029297,476.823822 
	C1066.708374,475.651581 1067.321533,474.887543 1067.934692,474.123535 
	C1071.761841,477.292297 1075.550171,480.509979 1079.437134,483.603668 
	C1080.826050,484.709259 1082.494751,486.373840 1083.965088,486.303619 
	C1089.313721,486.048157 1094.620239,484.991577 1099.969238,484.615356 
	C1101.857056,484.482605 1104.095337,485.033783 1105.625610,486.076630 
	C1106.305420,486.539978 1106.217285,489.810211 1105.439819,490.373199 
	C1103.951416,491.451172 1100.901367,492.551361 1099.941040,491.799835 
	C1095.950195,488.676941 1091.665405,489.915558 1087.531494,490.237854 
	C1083.080444,490.584839 1079.529175,489.681396 1076.319702,486.347412 
	C1073.351196,483.263702 1069.787842,480.752625 1066.234497,477.729370 
z"/>
<path fill="#37BCE2" opacity="1.000000" stroke="none" 
	d="
M997.831787,478.627167 
	C995.427185,479.065918 993.023987,479.512299 990.617676,479.941437 
	C987.893616,480.427246 985.171448,481.227509 982.439636,481.265839 
	C980.412659,481.294312 977.413086,480.929077 976.597473,479.635406 
	C975.723389,478.249084 976.180664,474.710236 977.386414,473.703888 
	C978.536072,472.744446 981.833801,473.151520 983.424805,474.160370 
	C987.749756,476.902802 992.373352,476.680939 996.176819,473.210571 
	C997.524109,471.981262 999.571411,470.951569 1001.349731,470.864563 
	C1007.628967,470.557312 1013.930054,470.697876 1020.558594,471.243652 
	C1019.652588,472.550018 1018.451538,473.814087 1017.161682,473.912476 
	C1013.362244,474.202118 1009.520020,474.183655 1005.708923,473.994720 
	C1001.957886,473.808807 999.231384,474.994629 997.831787,478.627167 
z"/>
<path fill="#3AC3E9" opacity="1.000000" stroke="none" 
	d="
M1025.064453,419.869446 
	C1026.163208,422.289276 1027.761475,424.612030 1028.254639,427.149567 
	C1029.219482,432.114410 1029.619751,437.194000 1030.119385,442.239380 
	C1030.201660,443.071259 1029.708862,444.637207 1029.293091,444.704956 
	C1028.331299,444.861542 1026.542603,444.556213 1026.347900,443.998627 
	C1025.551880,441.719482 1024.895020,439.288666 1024.798706,436.889160 
	C1024.583252,431.518677 1026.146851,425.953613 1021.614807,421.317047 
	C1020.611267,420.290375 1020.917542,417.821808 1020.905334,416.015228 
	C1020.845459,407.183167 1021.059570,398.344543 1020.766846,389.521851 
	C1020.687622,387.135345 1019.102844,384.819794 1018.347534,382.427979 
	C1017.770203,380.599854 1017.411194,378.702820 1017.275574,376.717468 
	C1018.371033,378.199219 1018.744934,380.296722 1019.996460,381.307098 
	C1023.674133,384.276306 1024.199707,387.993256 1024.099365,392.357819 
	C1023.878235,401.978363 1024.030762,411.607544 1024.030762,421.710144 
	C1024.496460,420.880920 1024.780518,420.375183 1025.064453,419.869446 
z"/>
<path fill="#3EBCE1" opacity="1.000000" stroke="none" 
	d="
M1067.753906,473.790039 
	C1067.321533,474.887543 1066.708374,475.651581 1066.020996,476.705017 
	C1065.635864,476.995514 1065.325073,476.997955 1064.575073,476.647278 
	C1063.410522,476.190552 1062.685303,476.088287 1061.959961,475.986023 
	C1061.959961,475.986053 1061.986328,476.009644 1061.994385,476.025146 
	C1062.690308,473.682465 1063.378296,471.324249 1064.552246,468.505188 
	C1071.019287,467.958496 1077.000488,467.872620 1082.981812,467.786774 
	C1089.385254,472.123840 1096.602295,473.123901 1104.122681,473.163544 
	C1105.156006,473.169006 1106.406250,474.298920 1107.107422,475.241852 
	C1107.409790,475.648376 1106.752563,477.483032 1106.209351,477.655548 
	C1105.070068,478.017365 1103.680054,477.887573 1102.461060,477.633545 
	C1100.458008,477.216095 1098.537476,476.216888 1096.531250,476.039825 
	C1092.467529,475.681183 1088.845093,474.766113 1084.899536,473.214539 
	C1079.803589,471.210663 1073.378174,472.587860 1067.525269,472.509094 
	C1067.541260,472.824951 1067.557129,473.140778 1067.753906,473.790039 
z"/>
<path fill="#30B6DB" opacity="1.000000" stroke="none" 
	d="
M1037.819092,416.244049 
	C1037.822388,422.739563 1037.958862,429.239655 1037.736816,435.727448 
	C1037.680176,437.382782 1036.487183,438.999207 1035.816284,440.633484 
	C1035.033936,438.927216 1033.731323,437.266235 1033.578003,435.505249 
	C1033.261841,431.872711 1033.544800,428.186615 1033.607910,424.522980 
	C1033.665283,421.192261 1033.983765,417.916046 1030.574341,415.595764 
	C1029.599365,414.932312 1029.201294,412.949890 1029.117065,411.537781 
	C1028.869873,407.387360 1028.759155,403.212463 1028.953247,399.063873 
	C1029.000610,398.052795 1030.421875,397.105988 1031.613525,396.610199 
	C1032.672729,403.862244 1029.614502,411.759491 1037.819092,416.244049 
z"/>
<path fill="#37BCE2" opacity="1.000000" stroke="none" 
	d="
M1035.004395,483.851654 
	C1035.470703,484.030670 1036.110474,484.072754 1036.376709,484.409760 
	C1039.127563,487.891052 1038.260376,505.358032 1034.753296,507.850342 
	C1029.115356,511.856995 1027.584473,516.964172 1028.613281,523.476868 
	C1029.069336,526.363464 1029.157837,529.790161 1024.299561,526.865601 
	C1024.543823,523.409546 1025.158936,520.596741 1025.016602,517.822815 
	C1024.811646,513.827942 1025.870239,510.545990 1029.141479,508.254364 
	C1033.152222,505.444702 1034.041504,501.635956 1033.931152,496.976746 
	C1033.827759,492.612640 1034.611206,488.227539 1035.004395,483.851654 
z"/>
<path fill="#3AC3E9" opacity="1.000000" stroke="none" 
	d="
M985.846802,427.347015 
	C992.151489,427.844269 997.323059,430.628357 1001.335815,435.275146 
	C1003.917175,438.264343 1005.709229,441.755646 1010.532776,442.015320 
	C1013.389893,442.169159 1020.970642,452.064026 1020.825073,455.774689 
	C1017.051758,452.693665 1013.895691,450.116699 1010.393494,447.740234 
	C1010.047363,447.940796 1010.004211,447.958649 1010.091736,447.590210 
	C1007.553040,445.668335 1004.926880,444.114929 1002.240112,442.401917 
	C1002.179565,442.242249 1001.941406,441.997406 1001.829163,441.681641 
	C1000.263916,439.635223 998.810974,437.904541 997.250732,436.026489 
	C996.965088,435.675507 996.745422,435.609406 996.404053,435.680695 
	C996.323853,435.680542 996.324219,435.841034 996.378601,435.592896 
	C996.338074,435.204498 996.243225,435.064240 995.850708,434.628723 
	C992.073486,433.806152 988.593811,433.278809 985.114136,432.751465 
	C985.305786,431.061157 985.497437,429.370819 985.846802,427.347015 
z"/>
<path fill="#37BCE2" opacity="1.000000" stroke="none" 
	d="
M1015.526855,490.104004 
	C1015.499634,491.417511 1015.021912,492.877502 1014.315674,494.588196 
	C1007.128479,494.780396 1000.166992,494.596313 993.212891,494.748596 
	C991.396118,494.788422 989.637451,496.184692 987.788147,496.394501 
	C985.878967,496.611145 983.524231,496.707367 982.073059,495.765015 
	C981.164795,495.175171 980.807983,491.946625 981.567139,491.024078 
	C982.552368,489.826874 985.160950,488.877899 986.607239,489.324188 
	C996.060425,492.241394 1005.585449,490.310944 1015.526855,490.104004 
z"/>
<path fill="#035680" opacity="1.000000" stroke="none" 
	d="
M1034.925171,483.564972 
	C1034.611206,488.227539 1033.827759,492.612640 1033.931152,496.976746 
	C1034.041504,501.635956 1033.152222,505.444702 1029.141479,508.254364 
	C1025.870239,510.545990 1024.811646,513.827942 1025.016602,517.822815 
	C1025.158936,520.596741 1024.543823,523.409546 1024.119873,526.594421 
	C1022.771362,526.651855 1021.570068,526.319824 1019.997314,525.894165 
	C1020.107239,523.789734 1021.364929,521.584106 1020.918945,519.805786 
	C1019.758545,515.178772 1019.642883,511.176270 1024.200195,508.425507 
	C1029.070312,505.485870 1030.621094,501.219208 1029.973633,495.737091 
	C1029.469727,491.470886 1029.344849,487.159943 1029.007812,482.450073 
	C1030.924683,482.446930 1032.885254,482.862610 1034.925171,483.564972 
z"/>
<path fill="#3EBCE1" opacity="1.000000" stroke="none" 
	d="
M1064.199097,404.260986 
	C1065.114258,407.844971 1067.120850,411.859283 1060.899414,412.629211 
	C1060.144165,419.637238 1051.363647,422.443756 1051.781494,430.094879 
	C1051.925903,432.740082 1052.008179,435.411957 1051.780762,438.042389 
	C1051.694580,439.038696 1050.655640,439.952637 1050.051270,440.904175 
	C1049.361938,439.956726 1048.154053,439.050201 1048.075562,438.054565 
	C1047.776489,434.262024 1047.777954,430.440247 1047.810547,426.630615 
	C1047.820068,425.514496 1047.992188,424.167084 1048.623657,423.327087 
	C1052.461914,418.221558 1056.485474,413.255798 1060.368896,408.183350 
	C1061.132568,407.185852 1061.553101,405.925659 1062.401611,404.432312 
	C1063.180542,404.139038 1063.689819,404.200012 1064.199097,404.260986 
z"/>
<path fill="#0A3353" opacity="1.000000" stroke="none" 
	d="
M375.619324,529.598633 
	C375.321320,506.482849 375.432587,483.172638 375.482605,459.862335 
	C375.548340,429.221039 375.565918,398.579712 375.726501,367.490143 
	C376.233673,368.754486 376.952972,370.466705 376.954987,372.179749 
	C377.014526,422.857574 377.012726,473.535492 376.960297,524.213318 
	C376.958496,525.943909 376.335052,527.673889 375.619324,529.598633 
z"/>
<path fill="#20CEF1" opacity="1.000000" stroke="none" 
	d="
M1025.009155,419.410278 
	C1024.780518,420.375183 1024.496460,420.880920 1024.030762,421.710144 
	C1024.030762,411.607544 1023.878235,401.978363 1024.099365,392.357819 
	C1024.199707,387.993256 1023.674133,384.276306 1019.996460,381.307098 
	C1018.744934,380.296722 1018.371033,378.199219 1017.397522,376.323853 
	C1019.780334,371.624664 1023.074646,370.439056 1026.331055,372.762726 
	C1029.107178,374.743713 1029.223755,379.245972 1027.177490,382.648346 
	C1025.832397,384.884796 1024.588379,387.606628 1024.551147,390.129578 
	C1024.409546,399.732666 1024.776733,409.343262 1025.009155,419.410278 
z"/>
<path fill="#3EBCE1" opacity="1.000000" stroke="none" 
	d="
M1024.829346,448.393280 
	C1020.070435,448.303497 1015.339355,443.187561 1015.112732,438.409088 
	C1014.967407,435.345490 1014.619385,432.291534 1014.093872,428.974762 
	C1011.707703,424.945099 1006.448486,423.144592 1007.181030,417.483826 
	C1008.434692,416.903687 1009.445557,416.577271 1010.456421,416.250824 
	C1011.125610,417.748718 1011.471252,419.540985 1012.519958,420.693634 
	C1017.046326,425.668762 1019.794189,431.059113 1019.110657,438.125885 
	C1018.931335,439.979614 1021.110962,442.083099 1022.266357,444.036926 
	C1023.075195,445.404755 1023.984436,446.713226 1024.829346,448.393280 
z"/>
<path fill="#035680" opacity="1.000000" stroke="none" 
	d="
M997.994202,478.938354 
	C999.231384,474.994629 1001.957886,473.808807 1005.708923,473.994720 
	C1009.520020,474.183655 1013.362244,474.202118 1017.161682,473.912476 
	C1018.451538,473.814087 1019.652588,472.550018 1020.925110,471.412201 
	C1023.184937,474.174072 1025.413818,477.342438 1027.796265,480.828308 
	C1023.923035,479.737579 1022.603210,483.619141 1019.828613,485.382904 
	C1017.880066,483.939026 1016.192566,482.280121 1014.678955,480.337341 
	C1016.844360,480.035736 1018.921448,480.358032 1020.798401,479.885437 
	C1022.136108,479.548553 1023.204651,478.142670 1024.393311,477.213806 
	C1024.040405,476.677826 1023.687439,476.141876 1023.334473,475.605896 
	C1015.863281,478.535950 1006.797363,473.760620 1000.228149,481.048676 
	C999.537659,480.448944 998.847107,479.849243 997.994202,478.938354 
z"/>
<path fill="#34BAE3" opacity="1.000000" stroke="none" 
	d="
M1094.946167,464.244324 
	C1093.520142,463.930603 1092.093994,463.616852 1090.087891,463.285461 
	C1089.507690,463.267853 1089.050659,463.332581 1089.050659,463.332581 
	C1088.869507,463.260559 1088.688477,463.188538 1088.477783,462.779297 
	C1091.625977,460.957001 1094.803711,459.471985 1097.981567,457.987000 
	C1098.766968,457.857300 1099.552368,457.727600 1101.013794,457.703186 
	C1102.836792,458.400024 1103.983765,458.991547 1104.897461,459.855835 
	C1103.873901,460.164490 1103.057617,460.345428 1102.297852,460.209656 
	C1099.818481,459.766632 1097.503784,460.113251 1098.164551,463.157379 
	C1098.489624,464.654114 1100.512085,466.079102 1102.096680,466.894836 
	C1103.054077,467.387665 1104.661621,466.726624 1105.947632,466.448395 
	C1108.253418,465.949585 1111.925293,466.015625 1112.573608,464.666809 
	C1114.637939,460.371674 1109.036499,461.706268 1107.879395,459.264648 
	C1108.048706,458.727142 1108.143921,458.418396 1108.204834,458.099121 
	C1108.925415,457.952972 1109.646118,457.806793 1111.038086,457.693298 
	C1112.149292,457.735229 1112.589111,457.744507 1113.028809,457.753784 
	C1113.524658,458.086884 1114.020630,458.419952 1114.853516,459.131042 
	C1115.420166,459.778717 1115.650024,460.048309 1115.879761,460.317902 
	C1117.068970,468.089600 1115.427490,469.693817 1107.651611,468.808167 
	C1104.332520,468.430115 1100.958984,468.529724 1097.244019,467.935547 
	C1096.632812,467.172546 1096.387573,466.886292 1096.142456,466.600006 
	C1096.142456,466.600006 1096.084595,466.270599 1095.971802,465.869507 
	C1095.554810,465.060364 1095.250488,464.652344 1094.946167,464.244324 
z"/>
<path fill="#035680" opacity="1.000000" stroke="none" 
	d="
M1097.618896,457.999207 
	C1094.803711,459.471985 1091.625977,460.957001 1088.190063,462.728760 
	C1086.641846,463.508789 1085.172363,463.768188 1084.121216,464.573486 
	C1083.354614,465.160675 1083.139282,466.467529 1082.830078,467.620178 
	C1077.000488,467.872620 1071.019287,467.958496 1064.588867,468.135864 
	C1064.116577,467.372803 1064.093506,466.518311 1064.493896,465.266449 
	C1070.756226,464.262970 1076.592407,463.625793 1082.435547,463.063110 
	C1085.569458,462.761353 1086.313843,460.998016 1085.623901,458.231323 
	C1086.266235,458.207397 1087.251587,457.901367 1087.498901,458.202240 
	C1090.875366,462.309174 1094.044189,459.570831 1097.618896,457.999207 
z"/>
<path fill="#3EBCE1" opacity="1.000000" stroke="none" 
	d="
M991.274048,452.387665 
	C992.407715,452.229095 994.056519,451.960480 994.551208,452.593628 
	C999.232910,458.585205 1005.749512,456.916595 1011.852966,456.998688 
	C1013.670837,457.023163 1015.591370,456.656403 1017.270264,457.141907 
	C1018.325745,457.447144 1019.019226,459.004303 1019.809692,460.413300 
	C1019.053955,460.889435 1018.363586,460.952057 1016.960938,460.984039 
	C1015.492371,461.000641 1014.735962,461.047913 1013.979614,461.095184 
	C1011.611328,461.051025 1009.243042,461.006866 1006.184570,460.972046 
	C1005.328918,461.017731 1005.163391,461.054169 1004.997864,461.090576 
	C1004.256409,461.061798 1003.514893,461.033051 1002.063416,460.948608 
	C999.559753,460.279022 997.766113,459.665131 995.972473,459.051239 
	C995.823608,458.749664 995.614075,458.498779 995.006348,457.893677 
	C993.527649,456.303253 992.386536,455.117798 991.245422,453.932312 
	C991.248169,453.520172 991.250977,453.108093 991.274048,452.387665 
z"/>
<path fill="#3AC3E9" opacity="1.000000" stroke="none" 
	d="
M1085.449951,458.182495 
	C1086.313843,460.998016 1085.569458,462.761353 1082.435547,463.063110 
	C1076.592407,463.625793 1070.756226,464.262970 1064.513184,464.839233 
	C1064.551636,462.670380 1064.994141,460.531403 1065.979492,458.171234 
	C1066.674805,457.876587 1066.827026,457.803101 1066.979126,457.729675 
	C1068.083740,457.666718 1069.188232,457.603760 1071.094849,457.640381 
	C1073.247681,457.722656 1074.598511,457.705383 1075.949341,457.688080 
	C1077.368164,457.722015 1078.787109,457.755981 1081.011963,457.829956 
	C1082.872314,457.888336 1083.926392,457.906738 1084.980591,457.925140 
	C1084.980591,457.925140 1085.275879,458.133698 1085.449951,458.182495 
z"/>
<path fill="#3EBCE1" opacity="1.000000" stroke="none" 
	d="
M1011.464905,433.073486 
	C1011.879333,434.095581 1012.005554,435.075165 1011.999939,436.054016 
	C1011.997375,436.511475 1011.739990,436.967468 1011.302307,438.375732 
	C1005.238525,433.429504 999.486145,428.737366 993.397461,423.956329 
	C993.039307,422.437439 993.017578,421.007385 992.995850,419.577393 
	C994.362305,419.992065 996.025024,420.045868 997.044800,420.882965 
	C1001.834167,424.814331 1006.446899,428.960907 1011.464905,433.073486 
z"/>
<path fill="#34BAE3" opacity="1.000000" stroke="none" 
	d="
M1010.068604,447.950195 
	C1010.089783,449.696381 1010.089783,451.433167 1010.089783,453.251648 
	C1000.292419,454.993256 995.901855,447.701080 990.627808,441.303314 
	C991.071167,440.340149 991.669983,439.702576 992.809814,439.318817 
	C995.375183,441.586792 997.399414,443.600922 999.602234,445.885132 
	C1002.612366,450.023224 1005.960144,450.964752 1010.004211,447.958649 
	C1010.004211,447.958649 1010.047363,447.940796 1010.068604,447.950195 
z"/>
<path fill="#3EBCE1" opacity="1.000000" stroke="none" 
	d="
M1000.153809,481.418640 
	C1006.797363,473.760620 1015.863281,478.535950 1023.334473,475.605896 
	C1023.687439,476.141876 1024.040405,476.677826 1024.393311,477.213806 
	C1023.204651,478.142670 1022.136108,479.548553 1020.798401,479.885437 
	C1018.921448,480.358032 1016.844360,480.035736 1014.407959,480.141174 
	C1013.233643,480.196503 1012.504211,480.164062 1011.032471,480.105225 
	C1008.606628,480.746887 1006.923035,481.414917 1005.239380,482.082886 
	C1005.239380,482.082886 1005.021118,482.407074 1004.756531,482.736755 
	C1004.371094,483.377838 1004.250183,483.689209 1004.129272,484.000610 
	C1003.225342,484.572845 1002.321289,485.145081 1001.417236,485.717285 
	C1000.971313,484.407715 1000.525330,483.098145 1000.153809,481.418640 
z"/>
<path fill="#34BAE3" opacity="1.000000" stroke="none" 
	d="
M1010.788940,415.966064 
	C1009.445557,416.577271 1008.434692,416.903687 1007.217773,417.139954 
	C1003.266418,415.612640 1001.509521,413.009583 1004.007874,409.515198 
	C1004.887146,408.285309 1008.125366,407.446198 1009.466309,408.103058 
	C1012.575745,409.626282 1012.915771,412.626068 1010.788940,415.966064 
z"/>
<path fill="#3AC3E9" opacity="1.000000" stroke="none" 
	d="
M983.312988,444.112122 
	C985.046204,444.837158 986.392273,445.598083 987.833069,446.070190 
	C989.476135,446.608551 991.203613,446.889435 992.894409,447.282227 
	C992.796814,447.835175 992.699280,448.388123 992.601746,448.941071 
	C989.882446,449.100555 987.163208,449.260010 984.133301,449.692932 
	C981.972717,449.961578 979.748535,450.573669 978.394104,449.752045 
	C977.355957,449.122314 977.415527,446.682983 976.986816,445.048492 
	C978.980469,444.705811 980.974121,444.363098 983.312988,444.112122 
z"/>
<path fill="#3EBCE1" opacity="1.000000" stroke="none" 
	d="
M988.907837,460.796936 
	C988.494568,460.937744 988.081238,461.078552 987.087158,461.282349 
	C985.987549,461.522522 985.468872,461.699677 984.950134,461.876862 
	C982.612549,461.847260 980.274963,461.817627 977.242065,461.608521 
	C975.678711,461.366394 974.810791,461.303741 973.942810,461.241089 
	C973.203247,460.283997 972.463745,459.326904 971.724243,458.369812 
	C973.167114,457.936584 974.610046,457.503357 976.762329,457.330994 
	C981.697815,457.793762 985.923889,457.995697 990.149963,458.197632 
	C990.157898,458.451782 990.182007,458.704376 990.085938,459.246155 
	C989.602295,459.956909 989.255066,460.376923 988.907837,460.796936 
z"/>
<path fill="#035680" opacity="1.000000" stroke="none" 
	d="
M1038.021851,416.011322 
	C1029.614502,411.759491 1032.672729,403.862244 1031.972412,396.640747 
	C1032.365356,395.828247 1032.801514,395.465759 1033.520508,395.038025 
	C1033.863647,398.428955 1033.299316,402.057648 1034.190796,405.284241 
	C1034.852417,407.679016 1037.146606,410.975311 1039.170532,411.340912 
	C1042.664185,411.972015 1041.567017,413.646912 1041.264648,415.747467 
	C1040.139038,415.943024 1039.181763,415.860809 1038.021851,416.011322 
z"/>
<path fill="#035680" opacity="1.000000" stroke="none" 
	d="
M999.423584,445.615051 
	C997.399414,443.600922 995.375183,441.586792 993.168640,439.298584 
	C991.582214,437.877869 990.225403,436.665680 988.758606,435.605804 
	C987.624878,434.786621 986.353149,434.158386 985.128479,433.098389 
	C988.593811,433.278809 992.073486,433.806152 995.715942,434.747589 
	C996.027283,435.388153 996.175720,435.614594 996.324219,435.841034 
	C996.324219,435.841034 996.323853,435.680542 996.185791,435.955139 
	C995.874573,436.861755 995.701416,437.493805 995.528198,438.125824 
	C995.775391,438.214996 996.022583,438.304138 996.269836,438.393280 
	C996.632568,437.653442 996.995300,436.913635 997.358032,436.173828 
	C998.810974,437.904541 1000.263916,439.635223 1001.505371,441.768921 
	C1000.863953,443.113007 1000.434082,444.054108 999.851318,445.142883 
	C999.698425,445.290588 999.423584,445.615051 999.423584,445.615051 
z"/>
<path fill="#3AC3E9" opacity="1.000000" stroke="none" 
	d="
M1003.526367,504.541992 
	C1003.494507,506.513489 1003.546814,508.432800 1002.749084,509.885132 
	C1002.464111,510.403961 999.682312,510.293396 998.842224,509.556152 
	C998.004578,508.820923 997.644043,505.915222 997.989197,505.737457 
	C999.576050,504.920197 1001.483093,504.724396 1003.526367,504.541992 
z"/>
<path fill="#3AC3E9" opacity="1.000000" stroke="none" 
	d="
M1009.595825,512.185486 
	C1009.454041,514.151917 1009.078918,515.839722 1008.703735,517.527527 
	C1007.373596,517.224792 1005.687134,517.302185 1004.827759,516.496887 
	C1004.160828,515.872070 1004.077637,513.295715 1004.515747,513.064270 
	C1005.937988,512.312683 1007.719360,512.240540 1009.595825,512.185486 
z"/>
<path fill="#035680" opacity="1.000000" stroke="none" 
	d="
M990.460083,458.241211 
	C985.923889,457.995697 981.697815,457.793762 977.118896,457.349060 
	C980.376526,456.928375 984.005920,456.907715 987.586304,456.478302 
	C988.686401,456.346375 989.652405,455.096313 990.962646,454.145264 
	C992.386536,455.117798 993.527649,456.303253 994.789551,457.775391 
	C993.530334,458.136261 992.150269,458.210510 990.460083,458.241211 
z"/>
<path fill="#37BCE2" opacity="1.000000" stroke="none" 
	d="
M1064.182861,404.224030 
	C1063.689819,404.200012 1063.180542,404.139038 1062.287842,404.073151 
	C1061.601196,404.103729 1061.332031,404.024323 1061.007568,403.253845 
	C1061.270386,400.961670 1061.622437,399.245728 1061.974487,397.529846 
	C1062.443848,397.445984 1062.913086,397.362122 1063.796875,397.778931 
	C1064.553833,399.930115 1064.896362,401.580658 1065.238892,403.231232 
	C1065.238892,403.231232 1065.152344,403.178131 1064.938232,403.259216 
	C1064.512451,403.629913 1064.300659,403.919495 1064.088867,404.209106 
	C1064.088867,404.209137 1064.166626,404.187073 1064.182861,404.224030 
z"/>
<path fill="#035680" opacity="1.000000" stroke="none" 
	d="
M995.993408,459.400269 
	C997.766113,459.665131 999.559753,460.279022 1001.695801,461.005432 
	C999.656555,464.571655 998.768433,464.369873 995.993408,459.400269 
z"/>
<path fill="#3AC3E9" opacity="1.000000" stroke="none" 
	d="
M1097.022827,429.874023 
	C1095.685669,429.322052 1094.456543,428.654694 1093.227295,427.987366 
	C1094.302490,427.275391 1095.377563,426.563385 1096.852173,425.774841 
	C1097.251587,425.698334 1097.228271,425.728699 1097.166260,426.205322 
	C1097.125488,427.602966 1097.146606,428.523956 1097.167847,429.444946 
	C1097.167847,429.444946 1097.130737,429.758667 1097.022827,429.874023 
z"/>
<path fill="#035680" opacity="1.000000" stroke="none" 
	d="
M1107.830322,458.018585 
	C1108.143921,458.418396 1108.048706,458.727142 1107.543579,459.325623 
	C1106.488770,459.611664 1105.809692,459.597351 1105.130737,459.583069 
	C1103.983765,458.991547 1102.836792,458.400024 1101.408081,457.647339 
	C1103.236084,457.636841 1105.345947,457.787445 1107.830322,458.018585 
z"/>
<path fill="#3EBCE1" opacity="1.000000" stroke="none" 
	d="
M1065.516113,403.062958 
	C1064.896362,401.580658 1064.553833,399.930115 1064.120239,397.949646 
	C1067.441650,398.433472 1066.952637,400.551971 1065.516113,403.062958 
z"/>
<path fill="#035680" opacity="1.000000" stroke="none" 
	d="
M1005.502075,482.131897 
	C1006.923035,481.414917 1008.606628,480.746887 1010.671509,480.168457 
	C1009.290100,480.898987 1007.527405,481.539917 1005.502075,482.131897 
z"/>
<path fill="#3EBCE1" opacity="1.000000" stroke="none" 
	d="
M1061.660522,397.557312 
	C1061.622437,399.245728 1061.270386,400.961670 1060.885376,403.076965 
	C1058.637939,401.312958 1058.508789,399.324463 1061.660522,397.557312 
z"/>
<path fill="#035680" opacity="1.000000" stroke="none" 
	d="
M973.971802,461.547180 
	C974.810791,461.303741 975.678711,461.366394 976.804810,461.633545 
	C976.049622,463.342041 975.036865,464.952393 973.971802,461.547180 
z"/>
<path fill="#34BAE3" opacity="1.000000" stroke="none" 
	d="
M1097.404785,429.279297 
	C1097.146606,428.523956 1097.125488,427.602966 1097.164185,426.223419 
	C1097.363281,426.881134 1097.502441,427.997375 1097.404785,429.279297 
z"/>
<path fill="#035680" opacity="1.000000" stroke="none" 
	d="
M1014.047668,461.363556 
	C1014.735962,461.047913 1015.492371,461.000641 1016.619202,461.042084 
	C1016.031677,461.297821 1015.073730,461.464874 1014.047668,461.363556 
z"/>
<path fill="#035680" opacity="1.000000" stroke="none" 
	d="
M1075.684326,457.512207 
	C1074.598511,457.705383 1073.247681,457.722656 1071.509766,457.616486 
	C1072.554810,457.440796 1073.987061,457.388550 1075.684326,457.512207 
z"/>
<path fill="#035680" opacity="1.000000" stroke="none" 
	d="
M985.098511,462.079895 
	C985.468872,461.699677 985.987549,461.522522 986.786499,461.412903 
	C986.460083,461.747925 985.853516,462.015442 985.098511,462.079895 
z"/>
<path fill="#035680" opacity="1.000000" stroke="none" 
	d="
M989.125488,461.006165 
	C989.255066,460.376923 989.602295,459.956909 990.185547,459.409180 
	C990.062134,459.926117 989.702637,460.570770 989.125488,461.006165 
z"/>
<path fill="#035680" opacity="1.000000" stroke="none" 
	d="
M1084.755127,457.711914 
	C1083.926392,457.906738 1082.872314,457.888336 1081.434692,457.772461 
	C1082.210693,457.616211 1083.370239,457.557434 1084.755127,457.711914 
z"/>
<path fill="#035680" opacity="1.000000" stroke="none" 
	d="
M1094.985596,464.499207 
	C1095.250488,464.652344 1095.554810,465.060364 1095.873535,465.734192 
	C1095.600342,465.584656 1095.312622,465.169373 1094.985596,464.499207 
z"/>
<path fill="#035680" opacity="1.000000" stroke="none" 
	d="
M1112.869873,457.599548 
	C1112.589111,457.744507 1112.149292,457.735229 1111.397461,457.615051 
	C1111.627197,457.484528 1112.169067,457.464905 1112.869873,457.599548 
z"/>
<path fill="#325C7A" opacity="1.000000" stroke="none" 
	d="
M1298.269043,530.094482 
	C1298.208496,529.831360 1298.339966,529.733398 1298.660645,529.826538 
	C1298.766846,529.906311 1298.378296,530.148254 1298.269043,530.094482 
z"/>
<path fill="#035680" opacity="1.000000" stroke="none" 
	d="
M1033.073242,392.268433 
	C1033.290527,392.142883 1033.515991,392.299255 1033.687012,392.771667 
	C1033.479980,392.846191 1033.296143,392.667053 1033.073242,392.268433 
z"/>
<path fill="#3EBCE1" opacity="1.000000" stroke="none" 
	d="
M1064.377441,404.146606 
	C1064.300659,403.919495 1064.512451,403.629913 1064.969727,403.219421 
	C1065.032227,403.427032 1064.849121,403.755554 1064.377441,404.146606 
z"/>
<path fill="#035680" opacity="1.000000" stroke="none" 
	d="
M1004.319214,483.840027 
	C1004.250183,483.689209 1004.371094,483.377838 1004.707153,482.925781 
	C1004.878845,483.126831 1004.741150,483.424927 1004.319214,483.840027 
z"/>
<path fill="#035680" opacity="1.000000" stroke="none" 
	d="
M1096.208740,466.879761 
	C1096.387573,466.886292 1096.632812,467.172546 1096.947754,467.735657 
	C1096.770020,467.728180 1096.522583,467.443848 1096.208740,466.879761 
z"/>
<path fill="#035680" opacity="1.000000" stroke="none" 
	d="
M1089.138794,463.429413 
	C1089.050659,463.332581 1089.507690,463.267853 1089.724121,463.347229 
	C1089.940674,463.426575 1089.598633,463.602112 1089.598633,463.602112 
	C1089.598633,463.602112 1089.226929,463.526245 1089.138794,463.429413 
z"/>
<path fill="#035680" opacity="1.000000" stroke="none" 
	d="
M1005.102234,461.208008 
	C1005.163391,461.054169 1005.328918,461.017731 1005.743774,461.030396 
	C1005.993103,461.079498 1005.646423,461.374817 1005.646423,461.374817 
	C1005.646423,461.374817 1005.206604,461.325470 1005.102234,461.208008 
z"/>
<path fill="#035680" opacity="1.000000" stroke="none" 
	d="
M1115.821533,460.054230 
	C1115.650024,460.048309 1115.420166,459.778717 1115.130005,459.248535 
	C1115.300781,459.255524 1115.531982,459.523041 1115.821533,460.054230 
z"/>
<path fill="#035680" opacity="1.000000" stroke="none" 
	d="
M1066.857300,457.637604 
	C1066.827026,457.803101 1066.674805,457.876587 1066.269287,457.942322 
	C1066.159790,457.608459 1066.399658,457.478790 1066.857300,457.637604 
z"/>
<path fill="#064070" opacity="1.000000" stroke="none" 
	d="
M1324.064209,458.192932 
	C1326.569092,470.351471 1325.414429,481.548492 1318.195557,491.435730 
	C1303.801514,511.150482 1275.692627,509.643890 1263.903442,488.233429 
	C1256.056885,473.983459 1256.615356,459.251160 1265.785645,445.702026 
	C1272.767700,435.385956 1283.319336,430.811615 1295.655396,432.379974 
	C1308.766235,434.046906 1317.650391,441.866852 1322.760620,453.985046 
	C1323.275513,455.205780 1323.591064,456.510498 1324.064209,458.192932 
z"/>
<path fill="#09406D" opacity="1.000000" stroke="none" 
	d="
M489.221680,450.007385 
	C489.911224,453.107910 490.507294,455.823090 491.192108,458.942352 
	C470.253510,458.942352 449.874329,458.942352 429.500610,458.942352 
	C428.892761,446.690002 439.319855,434.548523 453.117645,431.301941 
	C469.032471,427.557220 482.213745,434.263092 489.221680,450.007385 
z"/>
<path fill="#20CEF1" opacity="1.000000" stroke="none" 
	d="
M1062.421631,514.200073 
	C1063.858643,514.976318 1065.872070,515.962036 1065.793823,516.736084 
	C1065.597046,518.680359 1064.486450,520.544678 1063.580811,522.360596 
	C1063.543091,522.436340 1061.082031,521.657776 1061.098755,521.350098 
	C1061.225952,518.994263 1061.687744,516.656555 1062.421631,514.200073 
z"/>
<path fill="#033F71" opacity="1.000000" stroke="none" 
	d="
M1058.781128,481.302002 
	C1059.474731,481.436279 1059.967529,481.908844 1060.237915,482.706299 
	C1059.537109,482.567566 1059.058716,482.103912 1058.781128,481.302002 
z"/>
<path fill="#033F71" opacity="1.000000" stroke="none" 
	d="
M1063.273682,449.519775 
	C1063.292603,449.287628 1063.476196,449.243866 1063.659912,449.200134 
	C1063.586060,449.369507 1063.512207,449.538879 1063.273682,449.519775 
z"/>
<path fill="#033F71" opacity="1.000000" stroke="none" 
	d="
M1062.126465,476.361938 
	C1062.685303,476.088287 1063.410522,476.190552 1064.341553,476.653198 
	C1063.795776,476.921661 1063.044312,476.829773 1062.126465,476.361938 
z"/>
<path fill="#035680" opacity="1.000000" stroke="none" 
	d="
M1010.091736,447.590210 
	C1005.960144,450.964752 1002.612366,450.023224 999.602234,445.885132 
	C999.423584,445.615051 999.698425,445.290588 1000.200134,445.058533 
	C1001.234802,444.071472 1001.767761,443.316498 1002.300720,442.561523 
	C1004.926880,444.114929 1007.553040,445.668335 1010.091736,447.590210 
z"/>
<path fill="#033F71" opacity="1.000000" stroke="none" 
	d="
M1002.240112,442.401886 
	C1001.767761,443.316498 1001.234802,444.071472 1000.353027,444.910828 
	C1000.434082,444.054108 1000.863953,443.113007 1001.617554,442.084656 
	C1001.941406,441.997406 1002.179565,442.242249 1002.240112,442.401886 
z"/>
<path fill="#033F71" opacity="1.000000" stroke="none" 
	d="
M997.250732,436.026489 
	C996.995300,436.913635 996.632568,437.653442 996.269836,438.393280 
	C996.022583,438.304138 995.775391,438.214996 995.528198,438.125824 
	C995.701416,437.493805 995.874573,436.861755 996.266052,435.955261 
	C996.745422,435.609406 996.965088,435.675507 997.250732,436.026489 
z"/>
<path fill="#033F71" opacity="1.000000" stroke="none" 
	d="
M996.378601,435.592896 
	C996.175720,435.614594 996.027283,435.388153 996.013611,435.042816 
	C996.243225,435.064240 996.338074,435.204498 996.378601,435.592896 
z"/>
<path fill="#20CEF1" opacity="1.000000" stroke="none" 
	d="
M1104.897461,459.855835 
	C1105.809692,459.597351 1106.488770,459.611664 1107.503418,459.564941 
	C1109.036499,461.706268 1114.637939,460.371674 1112.573608,464.666809 
	C1111.925293,466.015625 1108.253418,465.949585 1105.947632,466.448395 
	C1104.661621,466.726624 1103.054077,467.387665 1102.096680,466.894836 
	C1100.512085,466.079102 1098.489624,464.654114 1098.164551,463.157379 
	C1097.503784,460.113251 1099.818481,459.766632 1102.297852,460.209656 
	C1103.057617,460.345428 1103.873901,460.164490 1104.897461,459.855835 
z"/>
</svg>